<svg xmlns="http://www.w3.org/2000/svg" viewBox="0 0 24 24">
    <defs>
        <style>
            .cls-1{fill:none}.cls-2{fill:#648895}
        </style>
    </defs>
    <g id="add_file" transform="translate(-45 -551)">
        <path id="Rectangle_236" d="M0 0h24v24H0z" class="cls-1" data-name="Rectangle 236" transform="translate(45 551)"/>
        <path id="add_file-2" d="M14.112 19.455a.805.805 0 0 1-1.154 0 .855.855 0 0 1 0-1.183l5.591-5.731a6.375 6.375 0 0 0 1.822-4.5 6.393 6.393 0 0 0-1.811-4.5l-.045-.058a6.149 6.149 0 0 0-8.759.046L7.13 6.23 4.176 9.269l-.023.012-1.222 1.253-.045.035a4.651 4.651 0 0 0-1.267 3.2 4.612 4.612 0 0 0 1.256 3.19L2.92 17a4.39 4.39 0 0 0 3.157 1.334A4.39 4.39 0 0 0 9.235 17l3.3-3.387a.805.805 0 0 1 1.154 0 .855.855 0 0 1 0 1.183l-3.3 3.387A5.991 5.991 0 0 1 6.088 20a6 6 0 0 1-4.312-1.821A6.26 6.26 0 0 1 0 13.77a6.294 6.294 0 0 1 1.731-4.362l.045-.046L3 8.109l.01-.009 2.965-3.042L6 5.035l2.623-2.692A7.719 7.719 0 0 1 19.657 2.3l.023.023.023.023.011.012a8.2 8.2 0 0 1 0 11.357l-5.6 5.742zm-7.243-7.332a.805.805 0 0 1-1.154 0 .855.855 0 0 1 0-1.183l4.945-5.07a4.108 4.108 0 0 1 5.885 0 4.348 4.348 0 0 1 0 6.021.805.805 0 0 1-1.154 0 .855.855 0 0 1 0-1.183 2.651 2.651 0 0 0 0-3.666 2.5 2.5 0 0 0-3.576 0l-4.946 5.081zm12.845-9.768a.826.826 0 0 1 .226.58l-.226-.58z" class="cls-2" data-name="add_file" transform="translate(46 553)"/>
    </g>
</svg>
