<svg xmlns="http://www.w3.org/2000/svg" id="spoiler" width="24" height="24" viewBox="0 0 24 24">
    <defs>
        <style>
            .cls-1{fill:none}.cls-2{fill:#fff}
        </style>
    </defs>
    <g id="Layer_1" data-name="Layer 1">
        <path id="Rectangle_324" d="M0 0h24v24H0z" class="cls-1" data-name="Rectangle 324"/>
        <path id="Path_277" d="M21.65 19.63l-9-16a.78.78 0 0 0-1.3 0l-9 16a.77.77 0 0 0 0 .75.76.76 0 0 0 .65.37h18a.76.76 0 0 0 .65-.37.77.77 0 0 0 0-.75zm-17.37-.38L12 5.53l7.72 13.72z" class="cls-2" data-name="Path 277" transform="translate(0 -1)"/>
        <path id="Path_278" d="M11.25 10v4a.75.75 0 1 0 1.5 0v-4a.75.75 0 0 0-1.5 0z" class="cls-2" data-name="Path 278" transform="translate(0 -1)"/>
        <path id="Path_279" d="M11.47 16.47a.75.75 0 1 0 1.06 0 .77.77 0 0 0-1.06 0z" class="cls-2" data-name="Path 279" transform="translate(0 -1)"/>
    </g>
</svg>
