<svg xmlns="http://www.w3.org/2000/svg" id="cars" viewBox="0 0 24 24">
    <defs>
        <style>
            .cls-1{fill:none}.cls-2{fill:#278ec4}
        </style>
    </defs>
    <g id="Layer_1" data-name="Layer 1">
        <path id="Rectangle_280" d="M0 0h24v24H0z" class="cls-1" data-name="Rectangle 280"/>
        <path id="Path_221" d="M10.58 11.71h1.47a24.87 24.87 0 0 0 2.6-.13 17.69 17.69 0 0 0 2.67-.44l.45-.13L18 11a.75.75 0 0 0-.41-1.44l-.22.06-.37.1a14.84 14.84 0 0 1-2.45.41 25.84 25.84 0 0 1-3.84.08 18.928 18.928 0 0 1-2.07-.19 11.09 11.09 0 0 1-2-.43.751.751 0 0 0-.52 1.41 12.37 12.37 0 0 0 2.29.49c.8.12 1.51.18 2.17.22z" class="cls-2" data-name="Path 221"/>
        <path id="Path_222" d="M3.89 10.23a.73.73 0 0 0 .25 0 .76.76 0 0 0 .71-.49l.38-1c.3-.83.61-1.65.9-2.47a1.27 1.27 0 0 1 .71-.75 5.82 5.82 0 0 1 2-.6 24.67 24.67 0 0 1 2.55-.15 29.459 29.459 0 0 1 3.1.09 8 8 0 0 1 1.76.29 4.15 4.15 0 0 1 1.07.45 1 1 0 0 1 .38.4l.05.14c.1.24.19.48.28.73.36 1 .7 1.93 1.05 2.89a.75.75 0 0 0 1.41-.51l-1.01-2.9c-.09-.26-.2-.52-.3-.78l-.05-.13a2.34 2.34 0 0 0-.94-1.1 5.65 5.65 0 0 0-1.46-.63 9.69 9.69 0 0 0-2.07-.36 32.409 32.409 0 0 0-3.25-.09 24.66 24.66 0 0 0-2.7.15 7.55 7.55 0 0 0-2.55.76 2.81 2.81 0 0 0-1.44 1.58l-.9 2.46-.38 1.06a.75.75 0 0 0 .45.96z" class="cls-2" data-name="Path 222"/>
        <path id="Path_223" d="M22.71 11.22l-.08-.22c-.05-.15-.11-.3-.15-.46a.75.75 0 1 0-1.44.42 2.81 2.81 0 0 0 .1.31h-.42a.74.74 0 0 0-.59.32.8.8 0 0 0-.11.69 1.31 1.31 0 0 0 .05.15 2.09 2.09 0 0 1 .18.81v4H3.75v-3.98a1.43 1.43 0 0 1 .1-.61 1.176 1.176 0 0 1 .1-.3v-.11a.78.78 0 0 0-.1-.68.75.75 0 0 0-.61-.31h-.38L3 10.9a.73.73 0 0 0-.48-.9.78.78 0 0 0-1 .48c-.08.23-.16.46-.23.69a1.24 1.24 0 0 0 .15 1.13 1.21 1.21 0 0 0 .82.47 3.59 3.59 0 0 0 0 .53v6a1.46 1.46 0 0 0 .44 1.07 1.5 1.5 0 0 0 1.07.43h2.48a1.46 1.46 0 0 0 1.5-1.49v-.51h8.5v.51a1.46 1.46 0 0 0 1.5 1.49h2.51a1.46 1.46 0 0 0 1.49-1.47v-6.11a4.221 4.221 0 0 0 0-.49 1.16 1.16 0 0 0 1-.81.71.71 0 0 0 .06-.28v-.18a.61.61 0 0 0-.1-.24zm-16.46 8h-2.5v-.57h2.5zm11.5 0v-.58h2.51v.57z" class="cls-2" data-name="Path 223"/>
        <path id="Path_224" d="M5.64 13.28a.751.751 0 1 0-.46 1.43 13.24 13.24 0 0 0 2.29.49h.1a.75.75 0 0 0 .09-1.49 11.09 11.09 0 0 1-2.02-.43z" class="cls-2" data-name="Path 224"/>
        <path id="Path_225" d="M16.65 15.2h.09a13.36 13.36 0 0 0 2.3-.49.77.77 0 0 0 .49-1 .75.75 0 0 0-1-.48 11.09 11.09 0 0 1-2 .43.75.75 0 0 0 .09 1.49z" class="cls-2" data-name="Path 225"/>
    </g>
</svg>
