<svg xmlns="http://www.w3.org/2000/svg" viewBox="0 0 24 24">
    <defs>
        <style>
            .cls-1{fill:none}.cls-2{fill:#648895}
        </style>
    </defs>
    <g id="change_camera" transform="translate(-60 -446)">
        <path id="Rectangle_229" d="M0 0h24v24H0z" class="cls-1" data-name="Rectangle 229" transform="translate(60 446)"/>
        <g id="Group_451" data-name="Group 451" transform="translate(62.025 450)">
            <path id="Path_186" d="M6.068 6.177a.694.694 0 0 0-1.028 0L3.908 7.392a6.314 6.314 0 0 1 6.067-5.974 5.9 5.9 0 0 1 4.319 1.924.694.694 0 0 0 1.028 0 .67.67 0 0 0 0-1.013A7.064 7.064 0 0 0 9.975 0a7.719 7.719 0 0 0-7.506 7.494L1.235 6.278a.694.694 0 0 0-1.028 0 .67.67 0 0 0 0 1.013l2.364 2.532a.754.754 0 0 0 1.028 0l2.366-2.532a.716.716 0 0 0 .103-1.114z" class="cls-2" data-name="Path 186"/>
            <path id="Path_187" d="M19.619 8.734L17.254 6.2a.816.816 0 0 0-1.131 0l-2.365 2.534a.67.67 0 0 0 0 1.013.694.694 0 0 0 1.028 0l1.131-1.215a6.314 6.314 0 0 1-6.067 5.975 5.738 5.738 0 0 1-4.216-1.823.694.694 0 0 0-1.028 0 .67.67 0 0 0 0 1.013 7.468 7.468 0 0 0 5.244 2.228 7.791 7.791 0 0 0 7.61-7.393l1.131 1.215c.1.2.308.2.514.2a.792.792 0 0 0 .514-.2.67.67 0 0 0 0-1.013z" class="cls-2" data-name="Path 187" transform="translate(.124 .076)"/>
        </g>
    </g>
</svg>
