<svg xmlns="http://www.w3.org/2000/svg" id="cinema" viewBox="0 0 24 24">
    <defs>
        <style>
            .cls-1{fill:none}.cls-2{fill:#278ec4}
        </style>
    </defs>
    <g id="Layer_1" data-name="Layer 1">
        <path id="Rectangle_286" d="M0 0h24v24H0z" class="cls-1" data-name="Rectangle 286"/>
        <path id="Path_232" d="M21.75 7.82V4a.76.76 0 0 0-.75-.75H3a.76.76 0 0 0-.75.75v16a.76.76 0 0 0 .75.75h18a.76.76 0 0 0 .75-.75v-9.18a.75.75 0 1 0-1.5 0v8.43H3.75V8.57H21a.76.76 0 0 0 .75-.75zm-5.67-.75h-2.14l1.87-2.32h2.07l-1.69 2.1a.76.76 0 0 0-.11.22zm-6.2-2.32l-1.69 2.1a.76.76 0 0 0-.11.22H5.94l1.87-2.32zm1.93 0h2.07l-1.69 2.1a.76.76 0 0 0-.11.22H9.94zm-8.06 0h2.13l-1.69 2.1a.76.76 0 0 0-.11.22h-.33zm14.19 2.32l1.87-2.32h.44v2.32z" class="cls-2" data-name="Path 232"/>
        <path id="Path_233" d="M6.07 16.22a.75.75 0 0 0 0 1.5h3a.75.75 0 1 0 0-1.5z" class="cls-2" data-name="Path 233"/>
    </g>
</svg>
