<svg xmlns="http://www.w3.org/2000/svg" viewBox="0 0 24 24">
    <defs>
        <style>
            .cls-1{fill:none}.cls-2{fill:#648895}
        </style>
    </defs>
    <g id="hot" transform="translate(-42 -91)">
        <path id="bg" d="M0 0h24v24H0z" class="cls-1" transform="translate(42 91)"/>
        <path id="hot-2" d="M14.337 18.074a.887.887 0 0 1-.361 1.229.852.852 0 0 1-1.2-.369 3.879 3.879 0 0 0-1.325-1.475 3.281 3.281 0 0 0-1.566-.369 3.684 3.684 0 0 0-2.651 1.475 6.609 6.609 0 0 0-1.2 3.933v.492a1.037 1.037 0 0 1-.843.983c-.241 0-.361 0-.482-.123a11.619 11.619 0 0 1-3.614-3.687A14.607 14.607 0 0 1 0 15a10.676 10.676 0 0 1 .361-2.827 6.347 6.347 0 0 1 1.2-2.581.12.12 0 0 1 .12-.123 4.416 4.416 0 0 1 .849-1.228 2.865 2.865 0 0 1 1.084-.983.8.8 0 0 1 1.2.123.544.544 0 0 1 .12.369c0 .123.6 2.827 1.566 3.81v-1.229C6.627 7.012 6.867 2.1 12.169.006A.9.9 0 0 1 13.253.5v.366c0 2.827 1.446 4.425 3.012 6.023C18.072 8.856 20 10.945 20 15a10.119 10.119 0 0 1-1.325 5.039 8.8 8.8 0 0 1-3.614 3.687.922.922 0 0 1-1.2-.246.966.966 0 0 1 .241-1.229 9.1 9.1 0 0 0 3.012-3.073A8.3 8.3 0 0 0 18.193 15c0-3.319-1.687-5.162-3.253-6.883-1.446-1.6-2.892-3.2-3.253-5.9-3.253 1.845-3.253 5.532-3.374 7.991a5.933 5.933 0 0 1-.482 2.827.814.814 0 0 1-.723.492c-1.807 0-2.892-2.335-3.373-3.933a3.245 3.245 0 0 0-.6.737 8.226 8.226 0 0 0-1.084 2.335A7.861 7.861 0 0 0 1.687 15a8.3 8.3 0 0 0 1.084 4.18 10.571 10.571 0 0 0 1.687 2.212A8.951 8.951 0 0 1 5.9 17.583a4.955 4.955 0 0 1 3.98-2.213 4.014 4.014 0 0 1 2.41.737 4.033 4.033 0 0 1 2.048 1.967z" class="cls-2" data-name="hot" transform="translate(44 91.026)"/>
    </g>
</svg>
