<?xml version="1.0" encoding="utf-8"?>
<!-- Generator: Adobe Illustrator 23.0.2, SVG Export Plug-In . SVG Version: 6.00 Build 0)  -->
<svg version="1.1" xmlns="http://www.w3.org/2000/svg" xmlns:xlink="http://www.w3.org/1999/xlink" x="0px" y="0px"
	 viewBox="0 0 50 50" style="enable-background:new 0 0 50 50;" xml:space="preserve">
<style type="text/css">
	.st0{fill:#2C8FC6;}
	.st1{fill:#648895;}
	.st2{fill:#FFFFFF;}
	.st3{fill:none;}
</style>
<g id="Слой_2">
	<g>
		<g id="write_mini" transform="translate(-16 -138)">
			<g id="Group_198" transform="translate(16 138)">
				<path id="Path_35" class="st1" d="M38.8,16.6l-5.5-5.4c-0.5-0.4-0.9-0.4-1.4,0l0,0l-3.7,3.9c-0.5,0.4-0.5,0.9,0,1.3l0,0l4.9,4.8
					L17.2,36.4h-4.4l0.2-3.9l12.9-12.7c0.5-0.4,0.5-1.1,0-1.3c-0.5-0.2-1.1-0.4-1.4,0l0,0L11.5,31.4c-0.2,0.2-0.2,0.4-0.2,0.7
					L11,37.5c0,0.4,0.5,0.9,0.9,1.1l0,0l5.8,0.2c0.2,0,0.5,0,0.7-0.2L35,22.3l3.7-3.7C39.1,17.6,39.1,17.1,38.8,16.6z M34.2,19.6
					L30,15.5l2.3-2.2l4.2,4.1L34.2,19.6z"/>
			</g>
		</g>
	</g>
</g>
<g id="Слой_1">
</g>
</svg>
