<svg xmlns="http://www.w3.org/2000/svg" viewBox="0 0 8 8.001">
    <defs>
        <style>
            .cls-1{fill:#fafafa}
        </style>
    </defs>
    <path id="delete" d="M-1949.873 7.874a.374.374 0 0 1 0-.562l3.312-3.312-3.312-3.312a.374.374 0 0 1 0-.562.374.374 0 0 1 .561 0l7.187 7.186a.376.376 0 0 1 0 .562.429.429 0 0 1-.281.112.429.429 0 0 1-.281-.112L-1946 4.561l-3.313 3.313a.4.4 0 0 1-.28.126.4.4 0 0 1-.28-.126zm4.715-4.773a.374.374 0 0 1 0-.561l2.47-2.415a.375.375 0 0 1 .562 0 .376.376 0 0 1 0 .562l-2.471 2.471a.429.429 0 0 1-.281.112c-.112.001-.168-.056-.28-.17z" class="cls-1" transform="translate(1950)"/>
</svg>
