<svg xmlns="http://www.w3.org/2000/svg" viewBox="0 0 44 44">
    <defs>
        <style>
            .cls-1{fill:#278ec4}.cls-2{fill:none}.cls-3{clip-path:url(#clip-path)}
        </style>
        <clipPath id="clip-path">
            <path id="Path_158" d="M0-5.756h36v23.994H0z" class="cls-1" data-name="Path 158" transform="translate(0 5.756)"/>
        </clipPath>
    </defs>
    <g id="done" transform="translate(-141 -187)">
        <path id="bg" d="M0 0h44v44H0z" class="cls-2" transform="translate(141 187)"/>
        <g id="Group_442" data-name="Group 442" transform="translate(145 202.756)">
            <g id="Group_441" class="cls-3" data-name="Group 441" transform="translate(0 -5.756)">
                <g id="Group_440" data-name="Group 440" transform="translate(0 .002)">
                    <path id="Path_157" d="M23.528.616a2.993 2.993 0 1 1 4.1 4.36L8.437 22.985a2.99 2.99 0 0 1-4.1 0L-6.482 12.834A2.992 2.992 0 0 1-6.611 8.6a2.992 2.992 0 0 1 4.231-.126L6.386 16.7z" class="cls-1" data-name="Path 157" transform="translate(7.425 .194)"/>
                </g>
            </g>
        </g>
    </g>
</svg>
