<svg xmlns="http://www.w3.org/2000/svg" viewBox="0 0 24 24.114">
    <defs>
        <style>
            .cls-1{fill:none}.cls-2{fill:#40b50e}
        </style>
    </defs>
    <g id="done" transform="translate(-291 -457)">
        <path id="bg" d="M0 0h24v24H0z" class="cls-1" transform="translate(291 457)"/>
        <path id="done-2" d="M19.4 4.875a.838.838 0 0 1 0-1.25.828.828 0 0 1 1.244 0A11.493 11.493 0 0 1 23.13 7.5 10.762 10.762 0 0 1 24 12a12.02 12.02 0 0 1-3.482 8.5 11.965 11.965 0 0 1-16.912 0A11.341 11.341 0 0 1 0 12.125a12.246 12.246 0 0 1 3.482-8.5A12 12 0 0 1 12.062 0a16.768 16.768 0 0 1 2.487.25 7.474 7.474 0 0 1 2.363.75.926.926 0 0 1 .5 1.125.918.918 0 0 1-1.119.5A9.284 9.284 0 0 0 14.3 2a10.9 10.9 0 0 0-2.114-.25 10.018 10.018 0 0 0-7.212 3 10.159 10.159 0 0 0-.249 14.625 10.018 10.018 0 0 0 7.212 3 10.018 10.018 0 0 0 7.212-3 10.122 10.122 0 0 0 2.984-7.25 10.233 10.233 0 0 0-.746-3.875A9.315 9.315 0 0 0 19.4 4.875zM17.534 7.75a.828.828 0 0 1 1.244 0 .838.838 0 0 1 0 1.25L16.4 11.24l-5.454 5.135a.828.828 0 0 1-1.244 0L5.347 12.25A.951.951 0 0 1 5.223 11a.825.825 0 0 1 1.244 0l3.733 3.625 7.334-6.875z" class="cls-2" data-name="done" transform="translate(291 457.114)"/>
    </g>
</svg>
