<svg xmlns="http://www.w3.org/2000/svg" id="food" viewBox="0 0 24 24">
    <defs>
        <style>
            .cls-1{fill:none}.cls-2{fill:#278ec4}
        </style>
    </defs>
    <g id="Layer_1" data-name="Layer 1">
        <path id="Rectangle_289" d="M0 0h24v24H0z" class="cls-1" data-name="Rectangle 289"/>
        <path id="Path_240" d="M9.53 15L6 18.49a.75.75 0 0 0 0 1.06.74.74 0 0 0 .53.22.73.73 0 0 0 .53-.22L10.59 16a.75.75 0 0 0-1.06-1z" class="cls-2" data-name="Path 240"/>
        <path id="Path_241" d="M16.4 12.35a5.34 5.34 0 0 0 3.69-1.65c1.86-1.86 2.2-4.55.76-6s-4.14-1.1-6 .76c-1.63 1.63-2.09 3.89-1.22 5.4l-1.49 1.49-7.6-7.61a.75.75 0 0 0-1.06 0 1 1 0 0 0-.09.13.83.83 0 0 0-.12.13l-.56.56c-.83.82-.52 2.39.72 3.63L8 13.82a.61.61 0 0 0 .53.23.75.75 0 0 0 .53-.22l1.21-1.2L17.65 20a.74.74 0 0 0 .53.22.71.71 0 0 0 .53-.22.74.74 0 0 0 0-1.06l-5.51-5.53 1.5-1.5a3.36 3.36 0 0 0 1.7.44zm-7.83-.12L4.5 8.09c-.73-.74-.81-1.42-.73-1.52L4 6.33l5.23 5.23zm7.34-5.7a3.89 3.89 0 0 1 2.63-1.23 1.72 1.72 0 0 1 1.25.47c.84.84.49 2.61-.76 3.87s-3 1.6-3.88.76-.49-2.62.76-3.87z" class="cls-2" data-name="Path 241"/>
    </g>
</svg>
