<svg xmlns="http://www.w3.org/2000/svg" viewBox="0 0 24 24">
    <defs>
        <style>
            .cls-1{fill:none}.cls-2{fill:#278ec4}
        </style>
    </defs>
    <g id="gallery" transform="translate(-94 -1086)">
        <path id="bg" d="M0 0h24v24H0z" class="cls-1" transform="translate(94 1086)"/>
        <path id="Path_178" d="M.728 0h7.493a.711.711 0 0 1 .728.728v7.285a.711.711 0 0 1-.728.728H.728A.586.586 0 0 1 0 8.117V.832A.742.742 0 0 1 .728 0zm11.239 11.239h7.493a.711.711 0 0 1 .728.728v7.284a.711.711 0 0 1-.728.728h-7.493a.711.711 0 0 1-.728-.728v-7.284a.711.711 0 0 1 .728-.728zm6.764 1.461H12.7v5.827h6.036V12.7zm-18-1.457h7.49a.711.711 0 0 1 .728.728v7.284a.711.711 0 0 1-.728.728H.728A.586.586 0 0 1 0 19.355v-7.284a.742.742 0 0 1 .728-.832zM7.492 12.7H1.457v5.827h6.035V12.7zM11.967 0h7.493a.711.711 0 0 1 .728.728v7.285a.711.711 0 0 1-.728.728h-7.493a.711.711 0 0 1-.728-.728V.728A.711.711 0 0 1 11.967 0zm6.764 1.457H12.7v5.827h6.036V1.457zm-11.239 0H1.457v5.827h6.035V1.457z" class="cls-2" data-name="Path 178" transform="translate(96 1088)"/>
    </g>
</svg>
