<svg xmlns="http://www.w3.org/2000/svg" id="games" viewBox="0 0 24 24">
    <defs>
        <style>
            .cls-1{fill:none}.cls-2{fill:#278ec4}
        </style>
    </defs>
    <g id="Layer_1" data-name="Layer 1">
        <path id="Rectangle_288" d="M0 0h24v24H0z" class="cls-1" data-name="Rectangle 288"/>
        <ellipse id="Ellipse_31" cx=".67" cy=".68" class="cls-2" data-name="Ellipse 31" rx=".67" ry=".68" transform="translate(15.07 7.51)"/>
        <path id="Path_236" d="M15.74 10.94a.68.68 0 1 0 .67.67.67.67 0 0 0-.67-.67z" class="cls-2" data-name="Path 236"/>
        <path id="Path_237" d="M18.1 9.9a.67.67 0 1 0-.67.68.68.68 0 0 0 .67-.68z" class="cls-2" data-name="Path 237"/>
        <ellipse id="Ellipse_32" cx=".67" cy=".68" class="cls-2" data-name="Ellipse 32" rx=".67" ry=".68" transform="translate(13.38 9.22)"/>
        <path id="Path_238" d="M7.9 12.08a.74.74 0 0 0 .75-.75v-.68h.67a.75.75 0 0 0 0-1.5h-.67v-.68a.75.75 0 0 0-1.5 0v.68h-.66a.75.75 0 0 0 0 1.5h.66v.68a.75.75 0 0 0 .75.75z" class="cls-2" data-name="Path 238"/>
        <path id="Path_239" d="M22.65 14.87L21.2 9c-.58-2.63-2.23-4.2-4.4-4.2H7.2c-2.14 0-3.83 1.61-4.38 4.12v.14l-1.47 5.81a3.55 3.55 0 0 0 2.57 4.28 3.37 3.37 0 0 0 .83.1 3.47 3.47 0 0 0 1.81-.51 3.51 3.51 0 0 0 1.6-2.18l.36-1.51h7.55a.75.75 0 0 0 0-1.5H7.93a.77.77 0 0 0-.73.58l-.5 2.07a2 2 0 0 1-.92 1.26 1.94 1.94 0 0 1-1.5.23 2 2 0 0 1-1.47-2.46l1.4-5.8a1 1 0 0 0 0-.16c.33-1.46 1.27-3 2.94-3h9.6c2.05 0 2.74 2.11 2.94 3v.1l1.42 5.86a2 2 0 0 1-3.29 1.99.75.75 0 1 0-1 1.11 3.49 3.49 0 0 0 3.19.82 3.55 3.55 0 0 0 2.64-4.28z" class="cls-2" data-name="Path 239"/>
    </g>
</svg>
