<svg xmlns="http://www.w3.org/2000/svg" xmlns:xlink="http://www.w3.org/1999/xlink" width="99" height="96" viewBox="0 0 99 96">
  <defs>
    <filter id="Ellipse_39" x="31.9" y="0" width="67.1" height="67.8" filterUnits="userSpaceOnUse">
      <feOffset dy="3" input="SourceAlpha"/>
      <feGaussianBlur stdDeviation="5" result="blur"/>
      <feFlood flood-opacity="0.161"/>
      <feComposite operator="in" in2="blur"/>
      <feComposite in="SourceGraphic"/>
    </filter>
  </defs>
  <g id="Group_588" data-name="Group 588" transform="translate(0 12)">
    <rect id="Rectangle_302" data-name="Rectangle 302" width="83.9" height="84" transform="translate(0 0)" fill="none"/>
    <path id="Path_253" data-name="Path 253" d="M12.044,8.2H44.555C47.7,8.2,49.8,11,49.8,14.15v24.5c0,3.5-2.447,5.95-5.244,5.95H42.108v5.25l-8.04-5.25H12.044C8.9,44.6,6.8,41.8,6.8,38.65V14.15C6.8,11,8.9,8.2,12.044,8.2Z" transform="translate(16.972 20.5)" fill="#1b6984"/>
    <path id="Path_254" data-name="Path 254" d="M39.755,3.9H7.244C4.447,3.9,2,6.35,2,9.85v24.5c0,3.5,2.447,5.95,5.244,5.95H9.691v5.25l8.04-5.25H39.755C42.9,40.3,45,37.5,45,34.35V9.85A5.17,5.17,0,0,0,39.755,3.9Z" transform="translate(4.992 9.75)" fill="#298dbe"/>
    <g id="Group_590" data-name="Group 590" transform="translate(46.9 0)">
      <g transform="matrix(1, 0, 0, 1, -46.9, -12)" filter="url(#Ellipse_39)">
        <ellipse id="Ellipse_39-2" data-name="Ellipse 39" cx="18.55" cy="18.9" rx="18.55" ry="18.9" transform="translate(46.9 12)" fill="#fff"/>
      </g>
      <g id="Group_585" data-name="Group 585" transform="translate(5.95 12.308)">
        <path id="Path_149_1_" d="M4,4.494H4a3.435,3.435,0,0,1,5.661,1.4l2.331,5.6s-1,2.8-4.329,1.4Z" transform="translate(4.749 -3.503)" fill="#298dbe"/>
        <path id="Path_150_1_" d="M9.75,11.158l2.45-5.6a4.164,4.164,0,0,1,6.3-1.05h0l-4.9,10.5a4.022,4.022,0,0,1-3.15,2.1,3.47,3.47,0,0,1-4.2-2.45l-1.05-2.1h0c3.5,1.75,4.55-1.4,4.55-1.4Z" transform="translate(7.05 -3.517)" fill="#2ea7cb"/>
        <path id="Path_151_1_" d="M1.7,4.494h0c2.1-1.75,4.55-1.05,5.95,1.4l4.9,10.5h0a3.961,3.961,0,0,1-5.95-1.75Z" transform="translate(-1.7 -3.503)" fill="#c8d6d7"/>
      </g>
    </g>
  </g>
</svg>
