<svg xmlns="http://www.w3.org/2000/svg" xmlns:xlink="http://www.w3.org/1999/xlink" width="93" height="88" viewBox="0 0 93 88">
  <defs>
    <filter id="Ellipse_39" x="25.9" y="0" width="67.1" height="67.8" filterUnits="userSpaceOnUse">
      <feOffset dy="3" input="SourceAlpha"/>
      <feGaussianBlur stdDeviation="5" result="blur"/>
      <feFlood flood-opacity="0.161"/>
      <feComposite operator="in" in2="blur"/>
      <feComposite in="SourceGraphic"/>
    </filter>
  </defs>
  <g id="Group_593" data-name="Group 593" transform="translate(0 4)">
    <rect id="Rectangle_303" data-name="Rectangle 303" width="84" height="84" fill="none"/>
    <g id="Group_592" data-name="Group 592" transform="translate(7 8.75)">
      <circle id="Ellipse_40" data-name="Ellipse 40" cx="19.25" cy="19.25" r="19.25" transform="translate(23.8 28)" fill="#c9110c"/>
      <circle id="Ellipse_41" data-name="Ellipse 41" cx="19.25" cy="19.25" r="19.25" transform="translate(0 4.2)" fill="#298dbe"/>
      <path id="Path_255" data-name="Path 255" d="M21.35,14.3h-5.6V8.35A1.653,1.653,0,0,0,14,6.6a1.653,1.653,0,0,0-1.75,1.75v5.6H6.65C5.6,14.3,4.9,15,4.9,15.7a1.875,1.875,0,0,0,1.75,1.75h5.6v5.6A1.653,1.653,0,0,0,14,24.8a1.6,1.6,0,0,0,1.75-1.4V17.45h5.6A1.653,1.653,0,0,0,23.1,15.7C23.1,14.65,22.4,14.3,21.35,14.3Z" transform="translate(5.25 7.75)" fill="#fff"/>
      <path id="Path_256" data-name="Path 256" d="M28.5,19H13.45a1.653,1.653,0,0,1-1.75-1.75,1.653,1.653,0,0,1,1.75-1.75H28.5a1.653,1.653,0,0,1,1.75,1.75A1.875,1.875,0,0,1,28.5,19Z" transform="translate(22.25 30)" fill="#fff"/>
      <g id="Group_594" data-name="Group 594" transform="translate(33.9 -0.75)">
        <g transform="matrix(1, 0, 0, 1, -40.9, -12)" filter="url(#Ellipse_39)">
          <ellipse id="Ellipse_39-2" data-name="Ellipse 39" cx="18.55" cy="18.9" rx="18.55" ry="18.9" transform="translate(40.9 12)" fill="#fff"/>
        </g>
        <g id="Group_585" data-name="Group 585" transform="translate(5.95 12.308)">
          <path id="Path_149_1_" d="M4,4.494H4a3.435,3.435,0,0,1,5.661,1.4l2.331,5.6s-1,2.8-4.329,1.4Z" transform="translate(4.749 -3.503)" fill="#298dbe"/>
          <path id="Path_150_1_" d="M9.75,11.158l2.45-5.6a4.164,4.164,0,0,1,6.3-1.05h0l-4.9,10.5a4.022,4.022,0,0,1-3.15,2.1,3.47,3.47,0,0,1-4.2-2.45l-1.05-2.1h0c3.5,1.75,4.55-1.4,4.55-1.4Z" transform="translate(7.05 -3.517)" fill="#2ea7cb"/>
          <path id="Path_151_1_" d="M1.7,4.494h0c2.1-1.75,4.55-1.05,5.95,1.4l4.9,10.5h0a3.961,3.961,0,0,1-5.95-1.75Z" transform="translate(-1.7 -3.503)" fill="#c8d6d7"/>
        </g>
      </g>
    </g>
  </g>
</svg>
