<svg xmlns="http://www.w3.org/2000/svg" viewBox="0 0 40 40">
    <defs>
        <style>
            .cls-1{fill:none}.cls-2{fill:#278ec4}
        </style>
    </defs>
    <g id="hashtag" transform="translate(-16 -152)">
        <path id="bg" d="M0 0h40v40H0z" class="cls-1" transform="translate(16 152)"/>
        <path id="hashtag-2" d="M11.792.888a1.4 1.4 0 0 1 1.561-.87 1.245 1.245 0 0 1 .867 1.565l-1.734 7.13h4.335a1.217 1.217 0 0 1 0 2.435h-5.029l-2.081 8.7v.174l-2.254 9.039a1.263 1.263 0 1 1-2.428-.7l1.908-7.3H1.214a1.217 1.217 0 0 1 0-2.435h6.243l1.734-7.3H1.214A1.474 1.474 0 0 1 0 9.931a1.187 1.187 0 0 1 1.214-1.217h8.67L11.792.888zm1.734 20.173a1.217 1.217 0 0 1 0-2.435h4.682L22.543.888A1.24 1.24 0 0 1 24.1.019a1.245 1.245 0 0 1 .867 1.565l-1.734 7.13h5.549a1.217 1.217 0 0 1 0 2.435h-6.239l-1.734 7.3h7.977a1.217 1.217 0 0 1 0 2.435h-8.5l-1.908 8.173a1.263 1.263 0 1 1-2.428-.7l1.908-7.478h-4.332z" class="cls-2" data-name="hashtag" transform="translate(21 157.025)"/>
    </g>
</svg>
