<svg xmlns="http://www.w3.org/2000/svg" viewBox="0 0 24 24">
    <defs>
        <style>
            .cls-1{fill:none}.cls-2{fill:#278ec4}
        </style>
    </defs>
    <g id="help" transform="translate(-44 -160)">
        <path id="Rectangle_178" d="M0 0h24v24H0z" class="cls-1" data-name="Rectangle 178" transform="translate(44 160)"/>
        <path id="Path_133" d="M19.349 4.9a.9.9 0 0 1 .025-1.266.887.887 0 0 1 1.265.025A11.914 11.914 0 1 1 16.732.968a.914.914 0 0 1 .468 1.179.913.913 0 0 1-1.178.472A9.846 9.846 0 0 0 14.053 2a10.131 10.131 0 1 0 5.3 2.9zM10.7 17.274a.893.893 0 1 1 1.786 0v.062a.893.893 0 1 1-1.786 0v-.062zm-.79-8.687a.883.883 0 0 1-1.228.261.9.9 0 0 1-.273-1.229 3.924 3.924 0 0 1 1.439-1.34 3.878 3.878 0 0 1 1.91-.5h.136A3.855 3.855 0 0 1 15.74 9.63a4.1 4.1 0 0 1-1.2 2.9 4.121 4.121 0 0 1-2.009 1.1v.893a.893.893 0 1 1-1.786 0v-1.679a.89.89 0 0 1 .893-.893 2.317 2.317 0 0 0 1.637-.683 2.319 2.319 0 0 0 .682-1.638 2.067 2.067 0 0 0-.608-1.452 2.043 2.043 0 0 0-1.451-.608h-.136A2.165 2.165 0 0 0 9.91 8.587z" class="cls-2" data-name="Path 133" transform="translate(44 160)"/>
    </g>
</svg>
