<svg xmlns="http://www.w3.org/2000/svg" id="humor" viewBox="0 0 24 24">
    <defs>
        <style>
            .cls-1{fill:none}.cls-2{fill:#278ec4}
        </style>
    </defs>
    <g id="Layer_1" data-name="Layer 1">
        <path id="Rectangle_283" d="M0 0h24v24H0z" class="cls-1" data-name="Rectangle 283"/>
        <path id="Path_228" d="M20 6.43a.75.75 0 1 0-1.23.86A8.15 8.15 0 0 1 20.25 12 8.25 8.25 0 1 1 12 3.75a8.37 8.37 0 0 1 3 .55.75.75 0 1 0 .54-1.39A9.61 9.61 0 0 0 12 2.25 9.75 9.75 0 1 0 21.75 12 9.63 9.63 0 0 0 20 6.43z" class="cls-2" data-name="Path 228"/>
        <path id="Path_229" d="M12 17.23A5.24 5.24 0 0 1 6.77 12a.75.75 0 0 0-1.5 0 6.73 6.73 0 0 0 13.46 0 .75.75 0 0 0-1.5 0A5.24 5.24 0 0 1 12 17.23z" class="cls-2" data-name="Path 229"/>
        <circle id="Ellipse_29" cx="1.22" cy="1.22" r="1.22" class="cls-2" data-name="Ellipse 29" transform="translate(7.51 7.14)"/>
        <circle id="Ellipse_30" cx="1.22" cy="1.22" r="1.22" class="cls-2" data-name="Ellipse 30" transform="translate(14.03 7.14)"/>
    </g>
</svg>
