<svg id="view" xmlns="http://www.w3.org/2000/svg" width="34" height="34" viewBox="0 0 34 34">
  <g id="Layer_1" data-name="Layer 1">
    <rect id="Rectangle_292" data-name="Rectangle 292" width="34" height="34" fill="none"/>
    <path id="Path_242" data-name="Path 242" d="M26.631,12.4a1.079,1.079,0,1,0-1.417,1.629A23.956,23.956,0,0,1,27.4,16.055c-1.573,1.686-6.12,6.021-11.333,6.021a11.078,11.078,0,0,1-3.8-.722l1.147-1.133a4.93,4.93,0,0,0,7.593-4.165,4.859,4.859,0,0,0-.793-2.649l9.35-9.35a1.063,1.063,0,0,0-1.5-1.5L21.475,9.141a13.387,13.387,0,0,0-5.412-1.233c-7.466,0-13.331,7.168-13.572,7.48a1.034,1.034,0,0,0,0,1.332,24.48,24.48,0,0,0,6.163,5.242L2.562,28.054a1.062,1.062,0,1,0,1.5,1.5l6.573-6.573A13.586,13.586,0,0,0,16.063,24.2c7.466,0,13.331-7.168,13.572-7.48a1.034,1.034,0,0,0,0-1.332A23.12,23.12,0,0,0,26.631,12.4Zm-13.4,3.655a2.817,2.817,0,0,1,3.924-2.607l-3.683,3.683A2.833,2.833,0,0,1,13.23,16.055Zm5.667,0a2.833,2.833,0,0,1-2.833,2.833,2.55,2.55,0,0,1-1.091-.227l3.683-3.683A2.833,2.833,0,0,1,18.9,16.055Zm-14.167,0c1.587-1.7,6.134-6.021,11.333-6.021a10.908,10.908,0,0,1,3.8.723L18.712,11.9a4.859,4.859,0,0,0-2.649-.793,4.958,4.958,0,0,0-4.944,4.944,4.859,4.859,0,0,0,.793,2.649l-1.7,1.7A23.077,23.077,0,0,1,4.73,16.055Z" transform="translate(0.937 0.945)" fill="#fafafa"/>
  </g>
</svg>
