<svg xmlns="http://www.w3.org/2000/svg" id="info" width="24" height="24" viewBox="0 0 24 24">
    <defs>
        <style>
            .cls-1{fill:none}.cls-2{fill:#648895}
        </style>
    </defs>
    <g id="Layer_1" data-name="Layer 1">
        <path id="Rectangle_314" d="M0 0h24v24H0z" class="cls-1" data-name="Rectangle 314"/>
        <g id="Group_608" data-name="Group 608" transform="translate(-.25 -.25)">
            <path id="Path_270" d="M20.455 6.537a.759.759 0 0 0-1.026-.195.779.779 0 0 0-.195 1.026 8.359 8.359 0 0 1 1.477 4.882 8.462 8.462 0 1 1-8.461-8.462 8.585 8.585 0 0 1 3.077.564.769.769 0 1 0 .554-1.426 9.856 9.856 0 0 0-3.631-.676 10.005 10.005 0 1 0 8.205 4.287z" class="cls-2" data-name="Path 270"/>
            <circle id="Ellipse_45" cx="1.251" cy="1.251" r="1.251" class="cls-2" data-name="Ellipse 45" transform="translate(10.999 6.681)"/>
            <path id="Path_271" d="M11.25 11.449V17.6a.769.769 0 0 0 1.538 0v-6.151a.769.769 0 0 0-1.538 0z" class="cls-2" data-name="Path 271" transform="translate(.231 .216)"/>
        </g>
    </g>
</svg>
