<svg xmlns="http://www.w3.org/2000/svg" viewBox="0 0 24 24">
    <defs>
        <style>
            .cls-1{fill:none}.cls-2{fill:#278ec4}
        </style>
    </defs>
    <g id="lang" transform="translate(-44 -160)">
        <path id="Rectangle_178" d="M0 0h24v24H0z" class="cls-1" data-name="Rectangle 178" transform="translate(44 160)"/>
        <path id="Path_215" d="M12 0a12 12 0 1 0 12 12A12.035 12.035 0 0 0 12 0zm0 22.2c-1.2 0-2.52-1.8-3.24-4.68a29.422 29.422 0 0 0 3.24.24 27.379 27.379 0 0 0 3.24-.24C14.52 20.4 13.2 22.2 12 22.2zm0-6.24a36.342 36.342 0 0 1-3.72-.24A34.211 34.211 0 0 1 8.04 12a36.341 36.341 0 0 1 .24-3.72A34.211 34.211 0 0 1 12 8.04a36.342 36.342 0 0 1 3.72.24 34.211 34.211 0 0 1 .24 3.72 36.342 36.342 0 0 1-.24 3.72 36.342 36.342 0 0 1-3.72.24zm-5.52-.72C3.6 14.52 1.8 13.2 1.8 12s1.8-2.52 4.68-3.24A25.56 25.56 0 0 0 6.24 12a25.56 25.56 0 0 0 .24 3.24zM12 1.8c1.2 0 2.52 1.8 3.24 4.68A25.56 25.56 0 0 0 12 6.24a25.56 25.56 0 0 0-3.24.24C9.48 3.6 10.8 1.8 12 1.8zm5.52 6.96c2.88.72 4.68 2.04 4.68 3.24s-1.8 2.52-4.68 3.24a29.422 29.422 0 0 0 .24-3.24 27.379 27.379 0 0 0-.24-3.24zm4.08-.36a13.741 13.741 0 0 0-4.44-1.56A13.741 13.741 0 0 0 15.6 2.4a10.547 10.547 0 0 1 6 6zm-13.2-6a13.741 13.741 0 0 0-1.56 4.44A13.741 13.741 0 0 0 2.4 8.4a10.547 10.547 0 0 1 6-6zm-6 13.2a13.741 13.741 0 0 0 4.44 1.56A13.741 13.741 0 0 0 8.4 21.6a10.547 10.547 0 0 1-6-6zm13.2 6a12.993 12.993 0 0 0 1.68-4.32 18.023 18.023 0 0 0 4.32-1.68 10.547 10.547 0 0 1-6 6z" class="cls-2" data-name="Path 215" transform="translate(44 160)"/>
    </g>
</svg>
