<svg xmlns="http://www.w3.org/2000/svg" viewBox="0 0 78 80">
    <defs>
        <style>
            .cls-1{fill:#278ec4}.cls-2{fill:#2eadf2}.cls-3{fill:#c8d6db}.cls-4{fill:#4f4b6a}
        </style>
    </defs>
    <g id="logo2" transform="translate(874 -146)">
        <path id="Path_149" d="M9.3 3.006c6.295-5.431 14.505-3.259 18.337 4.345l7.937 16.836s-2.737 8.961-14.232 4.073L9.3 3.006z" class="cls-1" data-name="Path 149" transform="translate(-857.847 146.011)"/>
        <path id="Path_150" d="M27.932 24.186l7.936-16.835c3.558-7.6 11.768-9.776 18.337-4.345L39.153 34.777a11.179 11.179 0 0 1-9.579 7.06c-5.2 1.086-10.126-1.358-12.863-7.06L13.7 28.26c11.221 4.888 14.232-4.073 14.232-4.073z" class="cls-2" data-name="Path 150" transform="translate(-850.205 146.011)"/>
        <path id="Path_151" d="M0 3.006C6.295-2.425 14.505-.253 18.337 7.351l15.052 31.77c-6.295 5.431-14.505 3.259-18.337-4.345L0 3.006z" class="cls-3" data-name="Path 151" transform="translate(-874 146.011)"/>
        <path id="Path_152" d="M1.2 22.657c0-.543 2.737-.543 3.011 0l3.557 13.849 2.189-7.875.275-1.631c.274-.543 3.284-.543 3.558 0l.274 1.629 2.189 7.875 3.558-13.849c0-.543 3.011-.543 3.011 0l-4.927 18.467c0 .272-.547.272-1.642.272s-1.642 0-1.916-.272l-2.463-9.5-2.463 9.5c0 .272-.821.272-1.916.272s-1.368 0-1.642-.272L1.2 22.657z" class="cls-4" data-name="Path 152" transform="translate(-871.916 184.199)"/>
        <path id="Path_153" d="M15.668 38.835A6.634 6.634 0 0 1 9.1 32.318v-1.9a6.634 6.634 0 0 1 6.568-6.518 6.634 6.634 0 0 1 6.568 6.517v.815c0 .815-.274 1.629-.547 1.629h-9.578a3.767 3.767 0 0 0 3.558 3.259h.547a3.081 3.081 0 0 0 3.011-1.9c.274-.815 3.011.815 2.463 1.358a6.551 6.551 0 0 1-5.747 3.259zm0-11.948a3.561 3.561 0 0 0-3.558 3.259h7.39a3.828 3.828 0 0 0-3.832-3.259z" class="cls-4" data-name="Path 153" transform="translate(-858.195 187.029)"/>
        <path id="Path_154" d="M27.389 34.277a6.634 6.634 0 0 0-6.568-6.517 9.432 9.432 0 0 0-3.011.272v-5.975c0-.543-3.011-.543-3.011 0v20.366c0 .543 3.011.543 3.011 0v-.272a8.152 8.152 0 0 0 2.737.543h.274a6.634 6.634 0 0 0 6.568-6.517v-1.9zm-9.852-2.987a6.914 6.914 0 0 1 2.737-.543h.547a3.609 3.609 0 0 1 3.558 3.53v1.9a3.609 3.609 0 0 1-3.558 3.53h-.547a4.884 4.884 0 0 1-2.737-1.086V31.29z" class="cls-4" data-name="Path 154" transform="translate(-848.295 183.169)"/>
        <path id="Path_155" d="M20.2 21.829c0-.272 3.011-.272 3.011 0v15.478a4.667 4.667 0 0 0 .274 1.9c.274.272 1.095.272 1.368.272.821 0 .821 2.987 0 2.987-1.095 0-2.737 0-3.558-.543a3.3 3.3 0 0 1-.821-2.444v-17.65z" class="cls-4" data-name="Path 155" transform="translate(-838.916 183.127)"/>
        <path id="Path_156" d="M29.068 38.835a6.634 6.634 0 0 1-6.568-6.517v-1.9a6.634 6.634 0 0 1 6.568-6.518 6.634 6.634 0 0 1 6.568 6.517v.815c0 .815-.274 1.629-.547 1.629h-9.578a3.767 3.767 0 0 0 3.558 3.259h.547a3.081 3.081 0 0 0 3.011-1.9c.274-.815 3.011.815 2.463 1.358a6.551 6.551 0 0 1-5.747 3.259zm0-11.948a3.561 3.561 0 0 0-3.558 3.259h7.39a4.048 4.048 0 0 0-3.832-3.259z" class="cls-4" data-name="Path 156" transform="translate(-834.921 187.029)"/>
    </g>
</svg>
