<svg xmlns="http://www.w3.org/2000/svg" viewBox="0 0 122 126">
    <defs>
        <style>
            .cls-1{fill:#278ec4}.cls-2{fill:#2eadf2}.cls-3{fill:#c8d6db}.cls-4{fill:#fff}
        </style>
    </defs>
    <g id="logo" transform="translate(534 -193)">
        <path id="Path_149" d="M9.3 4.741c9.846-8.554 22.688-5.132 28.681 6.843L50.395 38.1s-4.281 14.114-22.26 6.415L9.3 4.741z" class="cls-1" data-name="Path 149" transform="translate(-503.489 193.011)"/>
        <path id="Path_150" d="M35.96 38.1l12.414-26.517C53.939-.392 66.781-3.813 77.054 4.741L53.511 54.78c-3.425 7.7-9.418 10.692-14.982 11.12-8.133 1.711-15.839-2.138-20.119-11.12L13.7 44.515c17.551 7.7 22.26-6.415 22.26-6.415z" class="cls-2" data-name="Path 150" transform="translate(-489.054 193.011)"/>
        <path id="Path_151" d="M0 4.741c9.846-8.554 22.688-5.133 28.681 6.842l23.544 50.04c-9.846 8.554-22.688 5.132-28.681-6.843L0 4.741z" class="cls-3" data-name="Path 151" transform="translate(-534 193.011)"/>
        <path id="Path_152" d="M1.2 22.892c0-.855 4.281-.855 4.709 0L11.474 44.7 14.9 32.3l.428-2.566c.428-.855 5.137-.855 5.565 0l.428 2.566 3.425 12.4 5.565-21.812c0-.855 4.709-.855 4.709 0l-7.708 29.086c0 .428-.856.428-2.568.428s-2.568 0-3-.428l-3.849-14.969-3.853 14.969c0 .428-1.284.428-3 .428s-2.14 0-2.568-.428L1.2 22.892z" class="cls-4" data-name="Path 152" transform="translate(-530.063 265.957)"/>
        <path id="Path_153" d="M19.374 47.423A10.412 10.412 0 0 1 9.1 37.158v-2.994A10.412 10.412 0 0 1 19.374 23.9a10.412 10.412 0 0 1 10.273 10.264v1.283c0 1.283-.428 2.566-.856 2.566H13.809a5.908 5.908 0 0 0 5.565 5.132h.856c2.14 0 4.281-1.283 4.709-2.994.428-1.283 4.709 1.283 3.853 2.138a10.236 10.236 0 0 1-8.992 5.134zm0-18.818a5.584 5.584 0 0 0-5.565 5.132h11.558a6 6 0 0 0-5.993-5.137z" class="cls-4" data-name="Path 153" transform="translate(-504.146 271.364)"/>
        <path id="Path_154" d="M34.491 41.537a10.412 10.412 0 0 0-10.273-10.264 14.655 14.655 0 0 0-4.709.428v-9.409c0-.855-4.709-.855-4.709 0v32.076c0 .855 4.709.855 4.709 0v-.428a12.674 12.674 0 0 0 4.281.855h.428a10.412 10.412 0 0 0 10.273-10.264v-2.994zm-15.411-4.7a10.75 10.75 0 0 1 4.281-.855h.856a5.664 5.664 0 0 1 5.565 5.56v2.994a5.664 5.664 0 0 1-5.565 5.56h-.856a7.609 7.609 0 0 1-4.281-1.711V36.833z" class="cls-4" data-name="Path 154" transform="translate(-485.446 263.991)"/>
        <path id="Path_155" d="M20.2 21.946c0-.428 4.709-.428 4.709 0v24.378a7.4 7.4 0 0 0 .428 2.994c.428.428 1.712.428 2.14.428 1.284 0 1.284 4.7 0 4.7-1.712 0-4.281 0-5.565-.855a5.225 5.225 0 0 1-1.284-3.849v-27.8z" class="cls-4" data-name="Path 155" transform="translate(-467.73 263.909)"/>
        <path id="Path_156" d="M32.774 47.423A10.412 10.412 0 0 1 22.5 37.158v-2.994A10.412 10.412 0 0 1 32.774 23.9a10.412 10.412 0 0 1 10.273 10.264v1.283c0 1.283-.428 2.566-.856 2.566H27.209a5.908 5.908 0 0 0 5.565 5.132h.856c2.14 0 4.281-1.283 4.709-2.994.428-1.283 4.709 1.283 3.853 2.138a10.236 10.236 0 0 1-8.992 5.134zm0-18.818a5.584 5.584 0 0 0-5.565 5.132h11.558c-.856-2.994-3-5.132-5.993-5.132z" class="cls-4" data-name="Path 156" transform="translate(-460.184 271.364)"/>
    </g>
</svg>
