<?xml version="1.0" encoding="utf-8"?>
<!-- Generator: Adobe Illustrator 23.0.2, SVG Export Plug-In . SVG Version: 6.00 Build 0)  -->
<svg version="1.1" xmlns="http://www.w3.org/2000/svg" xmlns:xlink="http://www.w3.org/1999/xlink" x="0px" y="0px"
	 viewBox="0 0 50 50" style="enable-background:new 0 0 50 50;" xml:space="preserve">
<style type="text/css">
	.st0{fill:#2C8FC6;}
	.st1{fill:#648895;}
	.st2{fill:#FFFFFF;}
	.st3{fill:none;}
</style>
<g id="Слой_2">
	<g>
		<g id="messages_1_" transform="translate(-94 -1086)">
			<path id="bg_7_" class="st3" d="M105,1096.8h28v28h-28V1096.8z"/>
			<path id="Path_165_1_" class="st1" d="M131.2,1099.9c0.2-0.2,0.5-0.4,0.7-0.4c0.6,0,1.1,0.5,1.1,1.1l0,0v18.8
				c0,0.8-0.4,1.6-0.9,2.2c-0.6,0.6-1.4,0.9-2.2,0.9h-21.7c-0.8,0-1.6-0.4-2.2-0.9c-0.6-0.5-0.9-1.3-0.9-2.1v-17.3
				c0-0.8,0.3-1.6,0.9-2.2s1.4-0.9,2.2-0.9H126c0.6,0,1.1,0.5,1.1,1l0,0c0,0.6-0.5,1.1-1.1,1.1l0,0h-17.8c-0.2,0-0.6,0.1-0.8,0.2
				c-0.1,0.2-0.2,0.5-0.2,0.8v17.3c0,0.2,0.1,0.6,0.4,0.7c0.2,0.2,0.5,0.4,0.7,0.4H130c0.2,0,0.6-0.1,0.7-0.4
				c0.2-0.1,0.3-0.5,0.3-0.7v-16.7l-11.2,9.2c-0.3,0.3-1.1,0.3-1.4,0l-9.1-7.5c-0.5-0.4-0.5-1.1-0.1-1.5c0.4-0.4,0.9-0.5,1.4-0.1
				l8.4,7.1C119,1109.9,131.1,1100,131.2,1099.9z"/>
		</g>
	</g>
</g>
<g id="Слой_1">
</g>
</svg>
