<svg xmlns="http://www.w3.org/2000/svg" viewBox="0 0 24 24">
    <defs>
        <style>
            .cls-1{fill:none}
        </style>
    </defs>
    <g id="messages" transform="translate(-94 -1086)">
        <path id="bg" d="M0 0h24v24H0z" class="cls-1" transform="translate(94 1086)"/>
        <path id="Path_165" d="M22.5.683a.873.873 0 0 1 .6-.293.886.886 0 0 1 .9.878v16.1a2.633 2.633 0 0 1-.8 1.854 2.766 2.766 0 0 1-1.9.78H2.7a2.766 2.766 0 0 1-1.9-.78 2.261 2.261 0 0 1-.8-1.759V2.634A2.633 2.633 0 0 1 .8.78 2.592 2.592 0 0 1 2.7 0H18a.886.886 0 0 1 .9.878.886.886 0 0 1-.9.878H2.7a1.472 1.472 0 0 0-.7.2 1.385 1.385 0 0 0-.2.683v14.824a.69.69 0 0 0 .3.585.873.873 0 0 0 .6.293h18.7a.719.719 0 0 0 .6-.293.836.836 0 0 0 .3-.585V3.122l-9.6 7.9a.93.93 0 0 1-1.2 0L3.7 4.585a.9.9 0 0 1-.1-1.268.937.937 0 0 1 1.2-.1L12 9.268S22.4.78 22.5.683z" data-name="Path 165" transform="translate(94 1088)"/>
    </g>
</svg>
