<svg xmlns="http://www.w3.org/2000/svg" viewBox="0 0 24 24">
    <defs>
        <style>
            .cls-1{fill:none}.cls-2{fill:#278ec4}
        </style>
    </defs>
    <g id="messages" transform="translate(-44 -160)">
        <path id="Rectangle_178" d="M0 0h24v24H0z" class="cls-1" data-name="Rectangle 178" transform="translate(44 160)"/>
        <path id="Path_134" d="M22.48.763A.877.877 0 0 1 23.107.5a.9.9 0 0 1 .893.918v15.855a2.752 2.752 0 0 1-.787 1.922 2.633 2.633 0 0 1-1.88.8H2.667a2.633 2.633 0 0 1-1.88-.8A2.752 2.752 0 0 1 0 17.273V2.727A2.752 2.752 0 0 1 .787.8a2.579 2.579 0 0 1 1.88-.8H18a.9.9 0 0 1 .893.913.9.9 0 0 1-.893.914H2.667a.877.877 0 0 0-.627.259.93.93 0 0 0-.267.641v14.546a.93.93 0 0 0 .267.641.877.877 0 0 0 .627.259h18.666a.89.89 0 0 0 .627-.273.93.93 0 0 0 .267-.641V3.313l-9.64 8.275a.863.863 0 0 1-1.173-.041L3.68 4.785A.922.922 0 0 1 3.587 3.5a.874.874 0 0 1 1.253-.1l7.187 6.3L22.28.9a1.735 1.735 0 0 1 .2-.136z" class="cls-2" data-name="Path 134" transform="translate(44 162)"/>
    </g>
</svg>
