<svg xmlns="http://www.w3.org/2000/svg" viewBox="0 0 24 12">
    <defs>
        <style>
            .cls-1{fill:none}.cls-2{fill:#fff;fill-rule:evenodd}
        </style>
    </defs>
    <g id="more" transform="translate(-326 -210)">
        <path id="rectangle" d="M0 0h24v12H0z" class="cls-1" transform="translate(326 210)"/>
        <path id="path" d="M6 8a2 2 0 1 0-2-2 2.006 2.006 0 0 0 2 2zm0 2a2 2 0 1 0 2 2 2.006 2.006 0 0 0-2-2zm0 6a2 2 0 1 0 2 2 2.006 2.006 0 0 0-2-2z" class="cls-2" transform="rotate(90 70 280)"/>
    </g>
</svg>
