<svg xmlns="http://www.w3.org/2000/svg" viewBox="0 0 24 24">
    <defs>
        <style>
            .cls-1{fill:none}.cls-2{fill:#648895}
        </style>
    </defs>
    <g id="near" transform="translate(-42 -91)">
        <path id="bg" d="M0 0h24v24H0z" class="cls-1" transform="translate(42 91)"/>
        <path id="near-2" d="M-10 23.138c-1.875-.615-3-1.6-3-2.707a2.424 2.424 0 0 1 .75-1.6 6.008 6.008 0 0 1 2-.985.763.763 0 0 1 1.125.492.746.746 0 0 1-.5 1.108 4.5 4.5 0 0 0-1.375.738c-.125.123-.25.123-.25.247 0 .246.625.616 1.75.985a17.435 17.435 0 0 0 5.5.738 13.23 13.23 0 0 0 5.375-.861c1.125-.369 1.75-.738 1.75-.985l-.25-.246a5.74 5.74 0 0 0-1.249-.616.989.989 0 0 1-.5-1.108.943.943 0 0 1 1.125-.492 6.672 6.672 0 0 1 1.875.985 1.929 1.929 0 0 1 .874 1.6c0 1.108-1.125 2.093-3 2.707A19.94 19.94 0 0 1-4 24a19.947 19.947 0 0 1-6-.862zm5.5-1.969c-.125-.122-.25-.122-.25-.246-.374-.616-1-1.231-1.5-2.093-2.5-3.2-6-7.508-6-10.707a8.343 8.343 0 0 1 2.375-5.785A8.386 8.386 0 0 1-4 0a6.163 6.163 0 0 1 1.5.123 4.517 4.517 0 0 1 1.375.493c.5.123.625.616.5 1.108s-.626.615-1.125.492a3.7 3.7 0 0 0-1.125-.247A3.509 3.509 0 0 0-4 1.846a6.558 6.558 0 0 0-4.625 1.847 6.283 6.283 0 0 0-1.875 4.43c0 2.584 3.25 6.646 5.5 9.969a6.776 6.776 0 0 1 .875 1.108c.249-.369.625-.738.875-1.107 2.375-3.077 5.625-7.139 5.625-9.724a9.353 9.353 0 0 0-.25-1.846 4.291 4.291 0 0 0-.75-1.723.944.944 0 0 1 .25-1.23.978.978 0 0 1 1.249.246 10.853 10.853 0 0 1 1 2.092 7.085 7.085 0 0 1 .376 2.338c0 3.077-3.375 7.508-6 10.708-.5.738-1 1.354-1.5 1.969a.752.752 0 0 1-.7.408 1.022 1.022 0 0 1-.55-.162zM-6.75 9.846a4.073 4.073 0 0 1-1.125-2.585 3.506 3.506 0 0 1 1.25-2.707A3.427 3.427 0 0 1-4 3.446a3.7 3.7 0 0 1 2.75 1.108A3.787 3.787 0 0 1-.125 7.261 3.808 3.808 0 0 1-1.25 9.846 3.906 3.906 0 0 1-4 10.954a3.7 3.7 0 0 1-2.75-1.108zm1.375-4.062A2.024 2.024 0 0 0-6 7.261a1.965 1.965 0 0 0 .625 1.354A2.02 2.02 0 0 0-4 9.23a2.085 2.085 0 0 0 1.5-.615A1.836 1.836 0 0 0-2 7.261a1.521 1.521 0 0 0-.5-1.354A2.085 2.085 0 0 0-4 5.292a1.9 1.9 0 0 0-1.375.492z" class="cls-2" data-name="near" transform="translate(58 91)"/>
    </g>
</svg>
