<svg xmlns="http://www.w3.org/2000/svg" viewBox="0 0 24 24">
    <defs>
        <style>
            .cls-1{fill:none}.cls-2{fill:#278ec4}
        </style>
    </defs>
    <g id="notification" transform="translate(-44 -160)">
        <path id="Rectangle_178" d="M0 0h24v24H0z" class="cls-1" data-name="Rectangle 178" transform="translate(44 160)"/>
        <path id="Path_130" d="M10.915 2.531a7.709 7.709 0 0 1 4.514 2.16 7.425 7.425 0 0 1 2.251 5.321v5.506l2.05 1.951a.883.883 0 0 1 .013 1.259.937.937 0 0 1-.643.272H.905A.894.894 0 0 1 0 18.111a.868.868 0 0 1 .327-.679l2.012-1.914v-5.506A7.455 7.455 0 0 1 4.59 4.691a7.745 7.745 0 0 1 4.51-2.16V.889a.906.906 0 0 1 1.811 0v1.642zm.163 18.481a.906.906 0 0 1 1.811 0A2.94 2.94 0 0 1 12 23.123a3.076 3.076 0 0 1-4.3 0 2.94 2.94 0 0 1-.9-2.111.906.906 0 0 1 1.811 0 1.225 1.225 0 0 0 .352.852 1.311 1.311 0 0 0 .893.358 1.271 1.271 0 0 0 .868-.346 1.2 1.2 0 0 0 .352-.864zm-.955-16.753c-.038 0-.075.012-.113.012a.354.354 0 0 1-.11-.012 5.871 5.871 0 0 0-4.028 1.692 5.659 5.659 0 0 0-1.735 4.062v5.877a.835.835 0 0 1-.277.63l-.717.7h13.732l-.675-.64a.868.868 0 0 1-.327-.679v-5.889A5.648 5.648 0 0 0 14.15 5.95a5.871 5.871 0 0 0-4.024-1.691z" class="cls-2" data-name="Path 130" transform="translate(46 160)"/>
    </g>
</svg>
