<?xml version="1.0" encoding="utf-8"?>
<!-- Generator: Adobe Illustrator 23.0.2, SVG Export Plug-In . SVG Version: 6.00 Build 0)  -->
<svg version="1.1" id="Слой_1" xmlns="http://www.w3.org/2000/svg" xmlns:xlink="http://www.w3.org/1999/xlink" x="0px" y="0px"
	 viewBox="0 0 28 28" style="enable-background:new 0 0 28 28;" xml:space="preserve">
<style type="text/css">
	.st0{fill:#648895;}
</style>
<g id="write_mini" transform="translate(-16 -138)">
	<g id="Group_198" transform="translate(16 138)">
		<path id="Path_35" class="st0" d="M26.1,6.5l-4.9-4.9c-0.4-0.4-0.8-0.4-1.2,0l0,0l-3.3,3.5c-0.4,0.4-0.4,0.8,0,1.2l0,0l4.3,4.3
			L7,24.3H3.1l0.2-3.5L14.7,9.4c0.4-0.4,0.4-1,0-1.2s-1-0.4-1.2,0l0,0L1.9,19.8c-0.2,0.2-0.2,0.4-0.2,0.6l-0.2,4.9
			c0,0.4,0.4,0.8,0.8,1l0,0l5.1,0.2c0.2,0,0.4,0,0.6-0.2l14.7-14.7l3.3-3.3C26.3,7.4,26.3,6.9,26.1,6.5z M22,9.2l-3.7-3.7l2-2
			l3.7,3.7L22,9.2z"/>
	</g>
</g>
</svg>
