<svg xmlns="http://www.w3.org/2000/svg" viewBox="0 0 24 24">
    <defs>
        <style>
            .cls-1{fill:none}.cls-2{fill:#648895}
        </style>
    </defs>
    <g id="photo" transform="translate(-94 -1086)">
        <path id="bg" d="M0 0h24v24H0z" class="cls-1" transform="translate(94 1086)"/>
        <path id="photo-2" d="M-2022.041 561.794a1.957 1.957 0 0 1-1.959-1.958v-12.578a1.894 1.894 0 0 1 1.959-1.958h16.082a.7.7 0 0 1 .722.722.7.7 0 0 1-.722.721h-16.082a.487.487 0 0 0-.516.516v12.474a.487.487 0 0 0 .516.516h16.082a.487.487 0 0 0 .516-.516v-10.207a.7.7 0 0 1 .722-.722.7.7 0 0 1 .721.722v10.31a1.957 1.957 0 0 1-1.958 1.958zm4.02-8.247a4.07 4.07 0 0 1 4.124-4.124 4.135 4.135 0 0 1 4.124 4.124 4.135 4.135 0 0 1-4.124 4.123 4.135 4.135 0 0 1-4.124-4.123zm1.444 0a2.552 2.552 0 0 0 2.577 2.577 2.552 2.552 0 0 0 2.578-2.577 2.552 2.552 0 0 0-2.578-2.578 2.552 2.552 0 0 0-2.577 2.578zm-4.846-10.1a.705.705 0 0 1-.722-.722.705.705 0 0 1 .722-.722h3.608a.705.705 0 0 1 .722.722.705.705 0 0 1-.722.722z" class="cls-2" data-name="photo" transform="translate(2120 546)"/>
    </g>
</svg>
