<svg xmlns="http://www.w3.org/2000/svg" viewBox="0 0 24 24">
    <defs>
        <style>
            .cls-1{fill:none}.cls-2{fill:#648895}
        </style>
    </defs>
    <g id="plus" transform="translate(-13 -540)">
        <path id="bg" d="M0 0h24v24H0z" class="cls-1" transform="translate(13 540)"/>
        <path id="plus-2" d="M2.622 15.388A8.923 8.923 0 0 1 0 9.047a9.318 9.318 0 0 1 2.622-6.435A9.392 9.392 0 0 1 9.082 0a4.926 4.926 0 0 1 1.686.28 9.887 9.887 0 0 1 1.778.56.566.566 0 0 1 .374.839.57.57 0 0 1-.842.373 9.191 9.191 0 0 0-1.5-.466 9.242 9.242 0 0 0-1.59-.186 7.579 7.579 0 0 0-5.43 2.237 7.684 7.684 0 0 0-2.248 5.41 7.77 7.77 0 0 0 2.341 5.409 7.418 7.418 0 0 0 5.431 2.238 7.576 7.576 0 0 0 5.431-2.238 7.519 7.519 0 0 0 2.247-5.409 7.231 7.231 0 0 0-.56-2.892 9.865 9.865 0 0 0-1.594-2.425.621.621 0 0 1 0-.932.627.627 0 0 1 .936 0 10.266 10.266 0 0 1 1.873 2.891 6.716 6.716 0 0 1 .562 3.358 8.862 8.862 0 0 1-2.622 6.341A9.164 9.164 0 0 1 8.988 18a8.931 8.931 0 0 1-6.366-2.612zm5.805-3.171V9.7H5.805a.639.639 0 0 1-.655-.652.723.723 0 0 1 .75-.655h2.527V5.876a.655.655 0 0 1 1.31 0v2.517h2.528a.653.653 0 1 1 0 1.306H9.737v2.518a.655.655 0 0 1-1.31 0z" class="cls-2" data-name="plus" transform="translate(16 543)"/>
    </g>
</svg>
