<svg xmlns="http://www.w3.org/2000/svg" viewBox="0 0 24 24">
    <defs>
        <style>
            .cls-1{fill:none}.cls-2{fill:#fff}
        </style>
    </defs>
    <g id="plus" transform="translate(-291 -457)">
        <path id="bg" d="M0 0h24v24H0z" class="cls-1" transform="translate(291 457)"/>
        <g id="plus-2" data-name="plus" transform="translate(291 457)">
            <path id="plus-3" d="M-1486.5-436.482a11.9 11.9 0 0 1-3.5-8.455 12.428 12.428 0 0 1 3.5-8.581 12.527 12.527 0 0 1 8.614-3.482 6.541 6.541 0 0 1 2.247.374 13.158 13.158 0 0 1 2.372.746.755.755 0 0 1 .5 1.119.759.759 0 0 1-1.123.5 12.347 12.347 0 0 0-2-.622 12.368 12.368 0 0 0-2.123-.248 10.1 10.1 0 0 0-7.241 2.984 10.242 10.242 0 0 0-3 7.213 10.357 10.357 0 0 0 3.121 7.212 9.892 9.892 0 0 0 7.24 2.985 10.1 10.1 0 0 0 7.241-2.985 10.021 10.021 0 0 0 3-7.212 9.658 9.658 0 0 0-.749-3.856 13.146 13.146 0 0 0-2.122-3.233.829.829 0 0 1 0-1.244.837.837 0 0 1 1.248 0 13.686 13.686 0 0 1 2.5 3.856 8.939 8.939 0 0 1 .749 4.477 11.821 11.821 0 0 1-3.495 8.455 12.223 12.223 0 0 1-8.49 3.482 11.914 11.914 0 0 1-8.489-3.485zm7.74-4.228v-3.357h-3.5a.852.852 0 0 1-.874-.87.964.964 0 0 1 1-.871h3.37v-3.357a.851.851 0 0 1 .874-.87.851.851 0 0 1 .874.87v3.357h3.371a.852.852 0 0 1 .874.871.852.852 0 0 1-.874.87h-3.371v3.357a.852.852 0 0 1-.874.871.852.852 0 0 1-.875-.871z" class="cls-2" data-name="plus" transform="translate(1490 457)"/>
        </g>
    </g>
</svg>
