<svg xmlns="http://www.w3.org/2000/svg" id="politic" viewBox="0 0 24 24">
    <defs>
        <style>
            .cls-1{fill:none}.cls-2{fill:#278ec4}
        </style>
    </defs>
    <g id="Layer_1" data-name="Layer 1">
        <path id="Rectangle_285" d="M0 0h24v24H0z" class="cls-1" data-name="Rectangle 285"/>
        <path id="Path_231" d="M21.72 12.57V12A9.63 9.63 0 0 0 20 6.43a.75.75 0 0 0-.31-.25.88.88 0 0 0-.12-.18.75.75 0 0 0-1.06.08l-1.83 2.15a.75.75 0 0 0 0 1L20.19 13a8.22 8.22 0 0 1-2.57 5v-3.56a.75.75 0 0 0-.48-.7l-3.39-1.32a.76.76 0 0 0-.82.18l-2.79 2.89a.76.76 0 0 0 0 1l1.7 1.79v1.92a8.24 8.24 0 0 1-7.55-5.33l4.83-1.68a.75.75 0 0 0 .51-.71V8.27l2.71-1.37a.76.76 0 0 0 .41-.67V3.78A8.52 8.52 0 0 1 15 4.3a.75.75 0 1 0 .54-1.39A9.61 9.61 0 0 0 12 2.25 9.76 9.76 0 0 0 2.25 12a10 10 0 0 0 .37 2.64 9.76 9.76 0 0 0 9.36 7h.59a9.78 9.78 0 0 0 4.54-1.46A9.74 9.74 0 0 0 21.7 13a.73.73 0 0 0 .02-.43zM11.25 3.79v2L8.54 7.14a.76.76 0 0 0-.41.67V12l-4.24 1.46A7.85 7.85 0 0 1 3.75 12a8.25 8.25 0 0 1 7.5-8.21zM11.72 16l1.95-2 2.45.95v4.19a8 8 0 0 1-2.78 1v-2.12a.73.73 0 0 0-.2-.51zm7.34-8.25a8 8 0 0 1 1.09 3l-1.89-2z" class="cls-2" data-name="Path 231"/>
    </g>
</svg>
