<svg xmlns="http://www.w3.org/2000/svg" viewBox="0 0 24 24">
    <defs>
        <style>
            .cls-1{fill:none}
        </style>
    </defs>
    <g id="profile" transform="translate(-94 -1086)">
        <path id="bg" d="M0 0h24v24H0z" class="cls-1" transform="translate(94 1086)"/>
        <path id="user" d="M13.988 13.9a.834.834 0 0 1-.347-1.188.814.814 0 0 1 1.156-.356l4.74 2.614a.8.8 0 0 1 .463.83v2.5c0 1.9-1.156 3.327-3.006 4.277A15.267 15.267 0 0 1 9.942 24a15.6 15.6 0 0 1-7.052-1.426C1.156 21.5 0 20.079 0 18.178v-2.614a.8.8 0 0 1 .462-.713l4.393-2.5a.792.792 0 0 1 1.156.356.834.834 0 0 1-.346 1.193l-3.931 2.258V18.3c0 1.188.809 2.02 2.081 2.733a13.266 13.266 0 0 0 6.243 1.307 13.951 13.951 0 0 0 6.242-1.31c1.272-.713 2.081-1.545 2.081-2.733v-2.02L13.988 13.9zM9.942 0a5.135 5.135 0 0 1 3.468 1.426 4.942 4.942 0 0 1 1.5 3.446v2.376a4.733 4.733 0 0 1-1.5 3.446 5.135 5.135 0 0 1-3.468 1.426 5.135 5.135 0 0 1-3.468-1.426 4.829 4.829 0 0 1-1.387-3.328V4.99a5.433 5.433 0 0 1 1.387-3.564A5.371 5.371 0 0 1 9.942 0zm0 1.782a2.922 2.922 0 0 0-2.2.95 2.816 2.816 0 0 0-.925 2.139v2.377A3.291 3.291 0 0 0 7.746 9.5a3.117 3.117 0 0 0 2.2.95 2.922 2.922 0 0 0 2.2-.95 3.291 3.291 0 0 0 .925-2.257V4.871a3.291 3.291 0 0 0-.925-2.257 3.117 3.117 0 0 0-2.2-.832z" transform="translate(96 1086)"/>
    </g>
</svg>
