<svg xmlns="http://www.w3.org/2000/svg" viewBox="0 0 24 24">
    <defs>
        <style>
            .cls-1{fill:none}.cls-2{fill:#fff}
        </style>
    </defs>
    <g id="profile" transform="translate(-94 -1086)">
        <path id="bg" d="M0 0h24v24H0z" class="cls-1" transform="translate(94 1086)"/>
        <path id="user" d="M12.59 12.743a.772.772 0 0 1-.312-1.089.727.727 0 0 1 1.04-.327l4.266 2.4a.735.735 0 0 1 .416.762v2.287a4.4 4.4 0 0 1-2.705 3.921A13.529 13.529 0 0 1 8.948 22 13.824 13.824 0 0 1 2.6 20.693a4.765 4.765 0 0 1-2.6-4.03v-2.4a.736.736 0 0 1 .416-.653l3.954-2.283a.707.707 0 0 1 1.04.327.772.772 0 0 1-.31 1.089l-3.539 2.069v1.96c0 1.089.728 1.851 1.873 2.5a11.758 11.758 0 0 0 5.618 1.2 12.363 12.363 0 0 0 5.618-1.2c1.145-.653 1.873-1.416 1.873-2.5v-1.851l-3.953-2.178zM8.948 0a4.542 4.542 0 0 1 4.474 4.465v2.179A4.376 4.376 0 0 1 12.069 9.8a4.578 4.578 0 0 1-3.121 1.307A4.578 4.578 0 0 1 5.827 9.8a4.468 4.468 0 0 1-1.249-3.05V4.574a5.031 5.031 0 0 1 1.249-3.267A4.788 4.788 0 0 1 8.948 0zm0 1.634a2.608 2.608 0 0 0-1.977.866 2.6 2.6 0 0 0-.832 1.96v2.184a3.046 3.046 0 0 0 .832 2.069 2.781 2.781 0 0 0 1.977.871 2.608 2.608 0 0 0 1.977-.871 3.046 3.046 0 0 0 .832-2.069V4.465a3.046 3.046 0 0 0-.832-2.065 2.778 2.778 0 0 0-1.977-.762z" class="cls-2" transform="translate(97 1087)"/>
    </g>
</svg>
