<?xml version="1.0" encoding="utf-8"?>
<!-- Generator: Adobe Illustrator 23.0.2, SVG Export Plug-In . SVG Version: 6.00 Build 0)  -->
<svg version="1.1" xmlns="http://www.w3.org/2000/svg" xmlns:xlink="http://www.w3.org/1999/xlink" x="0px" y="0px"
	 viewBox="0 0 50 50" style="enable-background:new 0 0 50 50;" xml:space="preserve">
<style type="text/css">
	.st0{fill:#2C8FC6;}
	.st1{fill:#648895;}
	.st2{fill:#FFFFFF;}
	.st3{fill:none;}
</style>
<g id="Слой_2">
	<g>
		<g id="profile" transform="translate(-94 -1086)">
			<path id="bg_3_" class="st3" d="M103.2,1095h32v30h-32V1095z"/>
			<path id="user" class="st1" d="M124.5,1112.2c-0.5-0.4-0.8-1-0.5-1.4c0,0,0,0,0-0.1c0.4-0.5,0.8-0.7,1.5-0.5c0,0,0,0,0.1,0
				l6.4,3.2c0.5,0.1,0.7,0.6,0.7,1.1v3.1c0,2.4-1.5,4.1-4,5.4c-3.1,1.2-6.1,1.9-9.3,1.8c-3.2,0.1-6.4-0.5-9.3-1.8
				c-2.4-1.4-3.9-3.1-3.9-5.5v-3.2c0-0.4,0.1-0.8,0.7-1l5.9-3.1c0.5-0.4,1.2-0.1,1.5,0.4v0.1c0.4,0.5,0.1,1.1-0.4,1.4c0,0,0,0-0.1,0
				l-5.2,2.9v2.6c0,1.4,1.1,2.5,2.8,3.5c2.5,1.1,5.3,1.8,8.4,1.6c2.8,0,5.7-0.5,8.4-1.6c1.7-1,2.8-1.9,2.8-3.5v-2.5L124.5,1112.2z
				 M119.2,1095c1.7,0,3.3,0.6,4.7,1.8c1.2,1.1,2,2.6,2,4.2v3c0,1.6-0.7,3.1-2,4.3c-1.2,1.1-2.8,1.8-4.7,1.8c-1.7,0-3.3-0.6-4.7-1.8
				c-1.2-1.1-1.9-2.6-1.9-4.1v-3c0-1.6,0.7-3.2,1.9-4.4C115.9,1095.6,117.5,1095,119.2,1095z M119.2,1097.2c-1.2,0-2.1,0.5-2.8,1.2
				c-0.8,0.6-1.2,1.8-1.2,2.6v3c0,1.1,0.5,2,1.2,2.9c0.8,0.8,1.9,1.1,2.8,1.2c1.2,0,2.1-0.5,2.8-1.2c0.8-0.7,1.2-1.8,1.2-2.9v-3
				c0-1.1-0.5-2-1.2-2.9C121.3,1097.5,120.4,1097.2,119.2,1097.2L119.2,1097.2z"/>
		</g>
	</g>
</g>
<g id="Слой_1">
</g>
</svg>
