<?xml version="1.0" encoding="utf-8"?>
<!-- Generator: Adobe Illustrator 23.0.2, SVG Export Plug-In . SVG Version: 6.00 Build 0)  -->
<svg version="1.1" xmlns="http://www.w3.org/2000/svg" xmlns:xlink="http://www.w3.org/1999/xlink" x="0px" y="0px"
	 viewBox="0 0 50 50" style="enable-background:new 0 0 50 50;" xml:space="preserve">
<style type="text/css">
	.st0{fill:#2C8FC6;}
	.st1{fill:#648895;}
	.st2{fill:#FFFFFF;}
	.st3{fill:none;}
</style>
<g id="Слой_2">
	<g>
		<circle id="Ellipse_1_4_" class="st0" cx="25" cy="24.8" r="23.7"/>
	</g>
	<g>
		<g id="profile_1_" transform="translate(-94 -1086)">
			<path id="bg_4_" class="st3" d="M103,1094.9h32v32h-32V1094.9z"/>
			<path id="user_1_" class="st2" d="M124.3,1113.3c-0.5-0.4-0.8-1.1-0.5-1.5c0,0,0,0,0-0.1c0.4-0.5,0.8-0.8,1.5-0.5c0,0,0,0,0.1,0
				l6.4,3.5c0.5,0.1,0.7,0.7,0.7,1.2v3.3c0,2.5-1.5,4.4-4,5.7c-3.1,1.3-6.1,2-9.3,1.9c-3.2,0.1-6.4-0.5-9.3-1.9
				c-2.4-1.5-3.9-3.3-3.9-5.9v-3.5c0-0.4,0.1-0.8,0.7-1.1l5.9-3.3c0.5-0.4,1.2-0.1,1.5,0.4v0.1c0.4,0.5,0.1,1.2-0.4,1.5
				c0,0,0,0-0.1,0l-5.2,3.1v2.8c0,1.5,1.1,2.7,2.8,3.7c2.5,1.2,5.3,1.9,8.4,1.7c2.8,0,5.7-0.5,8.4-1.7c1.7-1.1,2.8-2,2.8-3.7v-2.7
				L124.3,1113.3z M119,1094.9c1.7,0,3.3,0.7,4.7,1.9c1.2,1.2,2,2.8,2,4.5v3.2c0,1.7-0.7,3.3-2,4.5c-1.2,1.2-2.8,1.9-4.7,1.9
				c-1.7,0-3.3-0.7-4.7-1.9c-1.2-1.2-1.9-2.8-1.9-4.4v-3.2c0-1.7,0.7-3.5,1.9-4.7C115.7,1095.6,117.3,1094.9,119,1094.9z
				 M119,1097.3c-1.2,0-2.1,0.5-2.8,1.3c-0.8,0.7-1.2,1.9-1.2,2.8v3.2c0,1.2,0.5,2.1,1.2,3.1c0.8,0.8,1.9,1.2,2.8,1.3
				c1.2,0,2.1-0.5,2.8-1.3c0.8-0.8,1.2-1.9,1.2-3.1v-3.2c0-1.2-0.5-2.1-1.2-3.1C121.1,1097.6,120.2,1097.3,119,1097.3L119,1097.3z"
				/>
		</g>
	</g>
</g>
<g id="Слой_1">
</g>
</svg>
