<?xml version="1.0" encoding="utf-8"?>
<!-- Generator: Adobe Illustrator 23.0.2, SVG Export Plug-In . SVG Version: 6.00 Build 0)  -->
<svg version="1.1" xmlns="http://www.w3.org/2000/svg" xmlns:xlink="http://www.w3.org/1999/xlink" x="0px" y="0px"
	 viewBox="0 0 50 50" style="enable-background:new 0 0 50 50;" xml:space="preserve">
<style type="text/css">
	.st0{fill:#2C8FC6;}
	.st1{fill:#648895;}
	.st2{fill:#FFFFFF;}
	.st3{fill:none;}
</style>
<g id="Слой_2">
	<g>
		<g id="search" transform="translate(-94 -1086)">
			<path id="bg" class="st3" d="M105,1097h25.9v25.9H105V1097z"/>
			<path id="search-2" class="st1" d="M130.6,1121.3l-8-8c-0.4-0.4-1-0.4-1.4,0c-1.5,1.6-3.7,2.5-5.9,2.5s-4.3-0.9-5.9-2.5
				c-1.6-1.6-2.5-3.8-2.5-6s0.9-4.3,2.5-5.9c3.3-3.2,8.6-3.2,11.9,0.1c1,1,1.7,2.3,2.2,3.7c0.4,1.4,0.4,2.8,0,4.2
				c-0.1,0.5,0.1,1,0.6,1.2c0.5,0.1,1-0.1,1.2-0.6c0.4-1.7,0.3-3.6-0.1-5.3c-0.4-1.7-1.4-3.2-2.7-4.5c-1.8-2-4.4-3.1-7.1-3.1
				s-5.4,1.1-7.2,3.1c-1.9,1.8-3.1,4.5-3.1,7.2c0,2.8,1.1,5.4,3.1,7.3c1.9,1.9,4.5,3,7.2,2.9c2.4,0,4.7-0.9,6.6-2.3l7.3,7.3
				c0.4,0.4,1,0.4,1.4,0C131,1122.3,131,1121.7,130.6,1121.3C130.7,1121.4,130.7,1121.4,130.6,1121.3z"/>
		</g>
	</g>
</g>
<g id="Слой_1">
</g>
</svg>
