<svg xmlns="http://www.w3.org/2000/svg" viewBox="0 0 24 24">
    <defs>
        <style>
            .cls-1{fill:none}
        </style>
    </defs>
    <g id="search" transform="translate(-94 -1086)">
        <path id="bg" d="M0 0h24v24H0z" class="cls-1" transform="translate(94 1086)"/>
        <path id="search-2" d="M23.732 22.539l-7.394-7.394a.936.936 0 0 0-1.312 0 7.571 7.571 0 0 1-5.486 2.266 7.571 7.571 0 0 1-5.486-2.266 7.84 7.84 0 0 1-2.266-5.6 7.571 7.571 0 0 1 2.267-5.49 7.8 7.8 0 0 1 13 3.458 7.349 7.349 0 0 1 0 3.935.868.868 0 0 0 1.67.477 9.711 9.711 0 0 0-.125-4.889 8.942 8.942 0 0 0-2.5-4.174A8.587 8.587 0 0 0 9.54 0a9.025 9.025 0 0 0-6.678 2.862A9.218 9.218 0 0 0 0 9.54a9.482 9.482 0 0 0 2.862 6.8 9.1 9.1 0 0 0 6.678 2.741 9.715 9.715 0 0 0 6.082-2.147l6.8 6.8a.936.936 0 0 0 1.312 0 .794.794 0 0 0-.002-1.195z" data-name="search" transform="translate(94 1086)"/>
    </g>
</svg>
