<svg xmlns="http://www.w3.org/2000/svg" viewBox="0 0 24 24">
    <defs>
        <style>
            .cls-1{fill:none}.cls-2{fill:#648895}
        </style>
    </defs>
    <g id="search_bar" transform="translate(-34.377 -10.213)">
        <path id="bg" d="M0 0h24v24H0z" class="cls-1" transform="translate(34.377 10.213)"/>
        <path id="search_bar-2" d="M17.8 16.9l-5.545-5.545a.7.7 0 0 0-.984 0 5.678 5.678 0 0 1-4.114 1.7 5.678 5.678 0 0 1-4.114-1.7 5.88 5.88 0 0 1-1.7-4.2 5.678 5.678 0 0 1 1.7-4.114 5.847 5.847 0 0 1 9.747 2.594 5.512 5.512 0 0 1 0 2.952.651.651 0 1 0 1.252.358 7.283 7.283 0 0 0-.089-3.667 6.707 6.707 0 0 0-1.878-3.13A6.44 6.44 0 0 0 7.155 0a6.769 6.769 0 0 0-5.008 2.147A6.913 6.913 0 0 0 0 7.155a7.112 7.112 0 0 0 2.147 5.1 6.821 6.821 0 0 0 5.009 2.057 7.286 7.286 0 0 0 4.561-1.61l5.1 5.1a.7.7 0 0 0 .984 0 .6.6 0 0 0-.001-.902z" class="cls-2" data-name="search_bar" transform="translate(37.377 13.213)"/>
    </g>
</svg>
