<svg xmlns="http://www.w3.org/2000/svg" id="security" width="24" height="24" viewBox="0 0 24 24">
    <defs>
        <style>
            .cls-1{fill:none}.cls-2{fill:#278ec4}
        </style>
    </defs>
    <g id="Layer_1" data-name="Layer 1">
        <path id="Rectangle_308" d="M0 0h24v24H0z" class="cls-1" data-name="Rectangle 308"/>
        <path id="Union_2" d="M-10141.193-230h-11.613a3.086 3.086 0 0 1-3.193-2.968v-8.472a2.99 2.99 0 0 1 2.324-2.833v-3.566a4.271 4.271 0 0 1 4.354-4.161h4.646a4.273 4.273 0 0 1 4.356 4.161v3.566a2.986 2.986 0 0 1 2.32 2.833.856.856 0 0 1-.87.845.858.858 0 0 1-.87-.845 1.38 1.38 0 0 0-1.453-1.274h-11.613a1.378 1.378 0 0 0-1.45 1.274v8.472a1.378 1.378 0 0 0 1.45 1.277h11.613a1.38 1.38 0 0 0 1.453-1.277v-4.23a.859.859 0 0 1 .87-.845.858.858 0 0 1 .87.845v4.23a3.083 3.083 0 0 1-3.122 2.968zm-9.987-19.575a2.484 2.484 0 0 0-.755 1.806v3.385h9.872v-3.454a2.544 2.544 0 0 0-2.613-2.47h-4.678a2.628 2.628 0 0 0-1.827.733zm3.309 13.708v-2.663a.861.861 0 0 1 .874-.845.859.859 0 0 1 .87.845v2.663a.858.858 0 0 1-.87.845.859.859 0 0 1-.875-.845z" class="cls-2" data-name="Union 2" transform="translate(10159 252.999)"/>
    </g>
</svg>
