<svg xmlns="http://www.w3.org/2000/svg" viewBox="0 0 40 40">
  <defs>
    <style>
      .cls-1 {
        fill: #278ec4;
      }

      .cls-2 {
        fill: none;
      }

      .cls-3 {
        fill: #fff;
      }
    </style>
  </defs>
  <g id="settings" transform="translate(-295 -76)">
    <circle id="Ellipse_1" data-name="Ellipse 1" class="cls-1" cx="20" cy="20" r="20" transform="translate(295 76)"/>
    <g id="settings-2" data-name="settings">
      <rect id="Rectangle_232" data-name="Rectangle 232" class="cls-2" width="24" height="24" transform="translate(303 84)"/>
      <path id="settings-3" data-name="settings" class="cls-3" d="M-3510.444,32a.774.774,0,0,1-.721-.513l-.722-2.359a.1.1,0,0,0-.1-.1l-2.165,1.025a.642.642,0,0,1-.825-.1l-2.062-2.051a.775.775,0,0,1-.1-.821l1.031-2.154a.1.1,0,0,1-.1-.1l-2.268-.717a.772.772,0,0,1-.516-.718V20.513a.772.772,0,0,1,.516-.718l2.165-.717a.1.1,0,0,0,.1-.1l-1.031-2.155a.991.991,0,0,1,.1-.923l2.062-2.051a.776.776,0,0,1,.928,0l2.165,1.025a.1.1,0,0,1,.1-.1l.722-2.256a.774.774,0,0,1,.721-.513h2.887a.576.576,0,0,1,.618.513l.412,1.026a.622.622,0,0,1-.412.923.628.628,0,0,1-.928-.41l-.206-.513h-1.856l-.721,2.051c0,.205-.207.308-.413.41a1.5,1.5,0,0,1-.722.205.659.659,0,0,1-.618,0l-1.958-.923-1.34,1.334,1.031,1.948a.649.649,0,0,1,0,.616,4.907,4.907,0,0,1-.31.717c0,.205-.206.308-.412.41l-2.062.718v1.846l2.062.718c.206,0,.31.205.412.41a5.083,5.083,0,0,0,.31.717.649.649,0,0,1,0,.616l-.928,1.948,1.34,1.334,1.959-.923a.659.659,0,0,1,.618,0l.618.308c.206,0,.31.205.413.41l.721,2.051h1.959l.722-2.051c0-.205.206-.308.412-.41l.618-.308a.66.66,0,0,1,.618,0l2.062.923,1.34-1.334-.928-1.948a.653.653,0,0,1,0-.616c.1-.205.207-.41.31-.615,0-.205.206-.308.412-.41l2.062-.718V21.128l-2.062-.718c-.206,0-.309-.205-.412-.41s-.206-.41-.31-.616a.651.651,0,0,1,0-.615l.928-1.949-1.34-1.333-1.958.923a.717.717,0,0,1-1.031-.308.71.71,0,0,1,.31-1.026l2.474-1.23a.642.642,0,0,1,.825.1l2.061,2.051a.768.768,0,0,1,.1.82l-1.031,2.155a.1.1,0,0,1,.1.1l2.268.717a.863.863,0,0,1,.412.718v2.975a.772.772,0,0,1-.515.718l-2.268.717a.1.1,0,0,0-.1.1l1.03,2.154a.632.632,0,0,1-.1.821l-2.062,2.051a.782.782,0,0,1-.825.1l-2.165-1.025a.1.1,0,0,1-.1.1l-.722,2.256a.775.775,0,0,1-.722.513Zm-2.68-10.052a4.125,4.125,0,0,1,4.124-4.1.7.7,0,0,1,.722.718.7.7,0,0,1-.722.718,2.813,2.813,0,0,0-2.68,2.768,2.722,2.722,0,0,0,2.68,2.667,2.722,2.722,0,0,0,2.68-2.667,2.721,2.721,0,0,0-.309-1.23.71.71,0,0,1,.309-1.026.717.717,0,0,1,1.031.308,5.38,5.38,0,0,1,.412,1.846,4.125,4.125,0,0,1-4.124,4.1A4.125,4.125,0,0,1-3513.124,21.948Z" transform="translate(3824 74)"/>
    </g>
  </g>
</svg>
