<svg xmlns="http://www.w3.org/2000/svg" viewBox="0 0 24 24">
    <defs>
        <style>
            .cls-1{fill:none}.cls-2{fill:#648895}
        </style>
    </defs>
    <g id="share" transform="translate(-13 -540)">
        <path id="bg" d="M0 0h24v24H0z" class="cls-1" transform="translate(13 540)"/>
        <path id="share-2" d="M12.966 6.092a2.988 2.988 0 0 0 2.115-.923A3.01 3.01 0 0 0 16 3.046a3.369 3.369 0 0 0-.828-2.123 2.884 2.884 0 0 0-4.23 0 3.01 3.01 0 0 0-.92 2.123 4.65 4.65 0 0 0 .184 1.108L5.057 7.477a2.911 2.911 0 0 0-2.023-.831 2.988 2.988 0 0 0-2.114.923 2.911 2.911 0 0 0 0 4.246 2.988 2.988 0 0 0 2.115.923 2.907 2.907 0 0 0 2.115-.831l3.126 2.123a2.74 2.74 0 0 0-.184.923 3.01 3.01 0 0 0 .92 2.123 3 3 0 1 0 4.23-4.246 2.884 2.884 0 0 0-4.23 0l-.092.092L5.793 10.8a4.65 4.65 0 0 0 .184-1.108 4.65 4.65 0 0 0-.184-1.108l5.057-3.415a2.988 2.988 0 0 0 2.116.923zm-3.035 7.57a1.695 1.695 0 0 1 2.391 2.4 1.821 1.821 0 0 1-1.2.554 1.744 1.744 0 0 1-1.2-.462 1.759 1.759 0 0 1-.46-1.2 2.006 2.006 0 0 1 .46-1.292zM11.77 1.846a1.779 1.779 0 0 1 2.391 0 1.8 1.8 0 0 1 0 2.4 1.779 1.779 0 0 1-2.391 0 1.759 1.759 0 0 1-.46-1.2 1.42 1.42 0 0 1 .46-1.2zm-7.54 9.046a1.779 1.779 0 0 1-2.391 0 1.8 1.8 0 0 1 0-2.4 1.779 1.779 0 0 1 2.391 0 1.8 1.8 0 0 1 0 2.4z" class="cls-2" data-name="share" transform="translate(17 543)"/>
    </g>
</svg>
