<svg xmlns="http://www.w3.org/2000/svg" id="sport" viewBox="0 0 24 24">
    <defs>
        <style>
            .cls-1{fill:none}.cls-2{fill:#278ec4}
        </style>
    </defs>
    <g id="Layer_1" data-name="Layer 1">
        <path id="Rectangle_282" d="M0 0h24v24H0z" class="cls-1" data-name="Rectangle 282"/>
        <path id="Path_227" d="M20.33 6.94a.73.73 0 0 0-.51-.35.89.89 0 0 0-.33-.08 5.5 5.5 0 0 0-5.41 4.61h-1.33V3.79a8.08 8.08 0 0 1 2.46.61.75.75 0 0 0 1-.4.74.74 0 0 0-.39-1 9.77 9.77 0 1 0 4.53 3.92zm-1.1 9a4 4 0 0 1-3.66-3.34h4.65a8.11 8.11 0 0 1-.99 3.4zm0-7.92a8.29 8.29 0 0 1 1 3.08h-4.62A4 4 0 0 1 19.22 8zm-8-4.25v7.33H9.92a5.52 5.52 0 0 0-4.19-4.45 8.23 8.23 0 0 1 5.52-2.86zm-7.45 8.85h4.65A4 4 0 0 1 4.77 16a8.11 8.11 0 0 1-.99-3.38zm0-1.5A8.06 8.06 0 0 1 4.77 8a4 4 0 0 1 3.62 3.08zm1.93 6.23A5.52 5.52 0 0 0 10 12.62h1.29v7.59a8.23 8.23 0 0 1-5.56-2.86zm7 2.86v-7.59H14a5.52 5.52 0 0 0 4.23 4.73 8.23 8.23 0 0 1-5.48 2.86z" class="cls-2" data-name="Path 227"/>
    </g>
</svg>
