<svg xmlns="http://www.w3.org/2000/svg" id="stars" viewBox="0 0 24 24">
    <defs>
        <style>
            .cls-1{fill:none}.cls-2{fill:#278ec4}
        </style>
    </defs>
    <g id="Layer_1" data-name="Layer 1">
        <path id="Rectangle_281" d="M0 0h24v24H0z" class="cls-1" data-name="Rectangle 281"/>
        <path id="Path_226" d="M22.72 9.65a.76.76 0 0 0-.62-.52l-6.91-1a.752.752 0 0 0-.2 1.49l5.33.73-3.83 3.54a.75.75 0 0 0-.23.68l.92 5-4.85-2.41a.76.76 0 0 0-.66 0l-4.85 2.5.92-5a.75.75 0 0 0-.23-.68L3.68 10.4 9 9.67a.73.73 0 0 0 .56-.4L12 4.62l.85 1.64a.751.751 0 0 0 1.33-.7l-1.52-2.91a.79.79 0 0 0-1.33 0L8.42 8.23l-6.52.9a.76.76 0 0 0-.62.52.78.78 0 0 0 .21.78l4.7 4.33-1.11 6.11a.75.75 0 0 0 .74.88.76.76 0 0 0 .33-.08L12 18.76l5.85 2.91a.75.75 0 0 0 1.07-.8l-1.11-6.11 4.7-4.33a.78.78 0 0 0 .21-.78z" class="cls-2" data-name="Path 226"/>
    </g>
</svg>
