<svg xmlns="http://www.w3.org/2000/svg" viewBox="0 0 19.279 19.4">
    <defs>
        <style>
            .cls-1{fill:#648895}
        </style>
    </defs>
    <g id="star" transform="translate(.039)">
        <path id="Path_206" d="M15.3 19.4a.6.6 0 0 1-.4-.1l-5.2-3.1-5.2 3.1a1.1 1.1 0 0 1-.8 0 .908.908 0 0 1-.3-.7l1.2-6.2L.2 8.1a.663.663 0 0 1-.2-.7c.1-.2.3-.5.6-.5l5.9-.7L9 .5c.2-.3.4-.5.7-.5a1.012 1.012 0 0 1 .7.4l2.3 5.3a.608.608 0 0 1-.4.9.608.608 0 0 1-.9-.4L9.7 2.5l-2 4.6a.664.664 0 0 1-.5.4l-4.9.6 3.6 3.5a.618.618 0 0 1 .2.7l-1 5 4.2-2.5a.854.854 0 0 1 .7 0l4.2 2.5-1-5a.952.952 0 0 1 .2-.7L17 8.1l-2.1-.3c-.4-.1-.7-.4-.6-.8s.4-.7.8-.6l3.5.5a.634.634 0 0 1 .6.5.618.618 0 0 1-.2.7l-4.4 4.3 1.2 6.2a.61.61 0 0 1-.3.7c.1.1-.1.1-.2.1z" class="cls-1" data-name="Path 206"/>
    </g>
</svg>
