<svg xmlns="http://www.w3.org/2000/svg" viewBox="0 0 24 24">
    <defs>
        <style>
            .cls-1{fill:none}.cls-2{fill:#278ec4}
        </style>
    </defs>
    <g id="subscribers" transform="translate(-81 -161)">
        <path id="Rectangle_233" d="M0 0h24v24H0z" class="cls-1" data-name="Rectangle 233" transform="translate(81 161)"/>
        <path id="done" d="M16.166 4.063a.7.7 0 0 1 0-1.042.69.69 0 0 1 1.036 0 9.577 9.577 0 0 1 2.073 3.229A8.969 8.969 0 0 1 20 10a10.017 10.017 0 0 1-2.9 7.083 9.971 9.971 0 0 1-14.093 0A9.451 9.451 0 0 1 0 10.1a10.205 10.205 0 0 1 2.9-7.079A10 10 0 0 1 10.052 0a13.973 13.973 0 0 1 2.073.208 6.229 6.229 0 0 1 1.969.625.772.772 0 0 1 .415.938.765.765 0 0 1-.933.417 7.737 7.737 0 0 0-1.658-.521 9.081 9.081 0 0 0-1.762-.208 8.348 8.348 0 0 0-6.01 2.5 8.466 8.466 0 0 0-.207 12.187 8.348 8.348 0 0 0 6.01 2.5 8.348 8.348 0 0 0 6.01-2.5 8.435 8.435 0 0 0 2.487-6.046 8.527 8.527 0 0 0-.622-3.229 7.762 7.762 0 0 0-1.658-2.812zm-1.554 2.4a.69.69 0 0 1 1.036 0 .7.7 0 0 1 0 1.042l-6.529 6.141a.69.69 0 0 1-1.036 0l-3.627-3.438a.792.792 0 0 1-.1-1.042.688.688 0 0 1 1.036 0L8.5 12.188l6.114-5.729z" class="cls-2" transform="translate(83 163)"/>
    </g>
</svg>
