<svg xmlns="http://www.w3.org/2000/svg" id="trash" width="24" height="24" viewBox="0 0 24 24">
    <defs>
        <style>
            .cls-1{fill:none}.cls-2{fill:#c90a0a}
        </style>
    </defs>
    <g id="Layer_1" data-name="Layer 1">
        <path id="Rectangle_304" d="M0 0h24v24H0z" class="cls-1" data-name="Rectangle 304"/>
        <path id="Path_257" d="M21.938 5.9h-5.589V3.935A1.916 1.916 0 0 0 14.464 2H11.2a1.9 1.9 0 0 0-1.359.563 1.933 1.933 0 0 0-.558 1.371v1.914H3.7a.76.76 0 0 0-.736.353.775.775 0 0 0 0 .822.76.76 0 0 0 .736.353h1.493V20.91A3.2 3.2 0 0 0 8.461 24h8.585a3.2 3.2 0 0 0 3.269-3.089v-9.896a.763.763 0 1 0-1.525 0v9.895A1.672 1.672 0 0 1 17 22.46H8.527a1.672 1.672 0 0 1-1.787-1.55V7.5h15.253a.76.76 0 0 0 .736-.353.775.775 0 0 0 0-.822.76.76 0 0 0-.736-.353zm-11.146 0V3.935a.394.394 0 0 1 .381-.4h3.269a.394.394 0 0 1 .381.4v1.913h-4.041s.011.022.011 0z" class="cls-2" data-name="Path 257" transform="translate(-.847 -1)"/>
    </g>
</svg>
