<svg xmlns="http://www.w3.org/2000/svg" id="travel" viewBox="0 0 24 24">
    <defs>
        <style>
            .cls-1{fill:none}.cls-2{fill:#278ec4}
        </style>
    </defs>
    <g id="Layer_1" data-name="Layer 1">
        <path id="Rectangle_284" d="M0 0h24v24H0z" class="cls-1" data-name="Rectangle 284"/>
        <path id="Path_230" d="M16.06 21.75h-.16a.75.75 0 0 1-.54-.47L13 15l-2.36 2.36.6 1.09a.74.74 0 0 1-.13.89L9 21.44a.71.71 0 0 1-.63.21.75.75 0 0 1-.56-.38L6 18l-3.27-1.79a.75.75 0 0 1-.38-.56.71.71 0 0 1 .21-.65l2.12-2.1a.74.74 0 0 1 .89-.13l1.09.6L9 11 2.74 8.64a.75.75 0 0 1-.47-.54.74.74 0 0 1 .2-.69l2.92-2.92a.74.74 0 0 1 .79-.17l6.92 2.61 3.8-3.8a2.826 2.826 0 1 1 4.02 3.97l-1.87 1.82a.75.75 0 0 1-1.06 0 .74.74 0 0 1 0-1.06L19.81 6a1.36 1.36 0 0 0 .08-1.93 1.37 1.37 0 0 0-1.89.12l-4.18 4.14a.73.73 0 0 1-.82.17L6.1 5.9 4.35 7.65 10.64 10a.75.75 0 0 1 .27 1.23l-3.58 3.6a.76.76 0 0 1-.89.12l-1.1-.59-1 1 2.59 1.41a.72.72 0 0 1 .3.3l1.41 2.59 1-1-.59-1.1a.76.76 0 0 1 .12-.89l3.58-3.58a.75.75 0 0 1 1.23.27l2.37 6.29 1.75-1.75-2.6-6.9a.74.74 0 0 1 .43-1 .75.75 0 0 1 1 .43l2.78 7.38a.74.74 0 0 1-.17.79l-2.92 2.92a.75.75 0 0 1-.56.23z" class="cls-2" data-name="Path 230"/>
    </g>
</svg>
