<svg xmlns="http://www.w3.org/2000/svg" viewBox="0 0 24 24">
    <defs>
        <style>
            .cls-1{fill:none}.cls-2{fill:#278ec4}
        </style>
    </defs>
    <g id="user" transform="translate(-81 -161)">
        <path id="Rectangle_233" d="M0 0h24v24H0z" class="cls-1" data-name="Rectangle 233" transform="translate(81 161)"/>
        <path id="user-2" d="M8.412 0a4.284 4.284 0 0 1 2.969 1.258 4.43 4.43 0 0 1 1.237 3.019v1.761a4.43 4.43 0 0 1-1.237 3.019 4.284 4.284 0 0 1-2.969 1.258 4.284 4.284 0 0 1-2.969-1.258 4.43 4.43 0 0 1-1.237-3.019V4.277a4.43 4.43 0 0 1 1.237-3.019A4.284 4.284 0 0 1 8.412 0zm11.753 11.95a.879.879 0 0 1-.371-1.258.851.851 0 0 1 1.237-.377l2.474 1.385a1.035 1.035 0 0 1 .495.755v1.509a3.086 3.086 0 0 1-1.608 2.636 7.654 7.654 0 0 1-3.711 1.132 1.055 1.055 0 0 1-.99-.881 1.062 1.062 0 0 1 .866-1.006 5.468 5.468 0 0 0 2.845-.881 1.524 1.524 0 0 0 .742-1.132V12.83l-1.979-.881zm-2.722-9.434a3.143 3.143 0 0 1 2.351 1.006 3.465 3.465 0 0 1 .99 2.39V7.17a3.247 3.247 0 0 1-.99 2.39 3.352 3.352 0 0 1-2.351 1.006 3.143 3.143 0 0 1-2.35-1.006 3.465 3.465 0 0 1-.99-2.39V5.912a3.247 3.247 0 0 1 .99-2.39 3.143 3.143 0 0 1 2.351-1.006zm0 1.887a1.2 1.2 0 0 0-1.113.5 1.888 1.888 0 0 0-.495 1.132V7.3a1.234 1.234 0 0 0 .495 1.132 1.828 1.828 0 0 0 1.113.5 1.2 1.2 0 0 0 1.113-.5 1.888 1.888 0 0 0 .496-1.132V6.038a1.234 1.234 0 0 0-.495-1.132 1.334 1.334 0 0 0-1.113-.5zm-5.814 7.3a.879.879 0 0 1-.371-1.258.953.953 0 0 1 1.237-.377l3.959 2.132a1.035 1.035 0 0 1 .495.755v2.138a4.009 4.009 0 0 1-2.6 3.648A13.458 13.458 0 0 1 8.412 20a12.235 12.235 0 0 1-5.938-1.258A4.381 4.381 0 0 1 0 15.094v-2.138a.849.849 0 0 1 .495-.756l3.711-2.013a.876.876 0 0 1 1.237.377.906.906 0 0 1-.371 1.258l-3.216 1.763v1.635c0 .881.619 1.509 1.608 2.013a11.762 11.762 0 0 0 5.072 1.006 11.762 11.762 0 0 0 5.072-1.006 2.522 2.522 0 0 0 1.608-2.013v-1.509L11.629 11.7zM8.412 1.761a2.423 2.423 0 0 0-1.732.755 2.5 2.5 0 0 0-.742 1.761v1.761A2.5 2.5 0 0 0 6.68 7.8a2.423 2.423 0 0 0 1.732.755 2.423 2.423 0 0 0 1.732-.755 2.5 2.5 0 0 0 .742-1.761V4.277a2.5 2.5 0 0 0-.742-1.761 2.487 2.487 0 0 0-1.732-.755z" class="cls-2" data-name="user" transform="translate(81 163)"/>
    </g>
</svg>
