<svg xmlns="http://www.w3.org/2000/svg" viewBox="0 0 40 40">
    <defs>
        <style>
            .cls-1{fill:none}.cls-2{fill:#278ec4}
        </style>
    </defs>
    <g id="users" transform="translate(-16 -94)">
        <path id="Rectangle_156" d="M0 0h40v40H0z" class="cls-1" data-name="Rectangle 156" transform="translate(16 94)"/>
        <path id="Path_89" d="M11.918 0a6.105 6.105 0 0 1 4.206 1.761 6.164 6.164 0 0 1 1.753 4.226v2.466a6.164 6.164 0 0 1-1.753 4.226 6.105 6.105 0 0 1-4.206 1.761 6.105 6.105 0 0 1-4.206-1.761 6.164 6.164 0 0 1-1.753-4.226V5.987a6.164 6.164 0 0 1 1.752-4.226A6.105 6.105 0 0 1 11.918 0zm16.649 16.73a1.3 1.3 0 0 1 1.227-2.289l3.506 1.936a1.448 1.448 0 0 1 .7 1.057v2.113a4.314 4.314 0 0 1-2.278 3.7 10.934 10.934 0 0 1-5.258 1.585 1.489 1.489 0 0 1-1.4-1.233 1.492 1.492 0 0 1 1.227-1.409 7.81 7.81 0 0 0 4.031-1.233 2.131 2.131 0 0 0 1.052-1.585v-1.41l-2.8-1.233zM24.711 3.522a4.477 4.477 0 0 1 3.33 1.409 4.823 4.823 0 0 1 1.4 3.346v1.761a4.519 4.519 0 0 1-1.4 3.346 4.777 4.777 0 0 1-3.33 1.409 4.477 4.477 0 0 1-3.33-1.409 4.823 4.823 0 0 1-1.4-3.346V8.277a4.519 4.519 0 0 1 1.4-3.346 4.477 4.477 0 0 1 3.33-1.409zm0 2.642a1.705 1.705 0 0 0-1.577.7 2.629 2.629 0 0 0-.7 1.585v1.761a1.72 1.72 0 0 0 .7 1.585 2.6 2.6 0 0 0 1.577.7 1.705 1.705 0 0 0 1.577-.7 2.629 2.629 0 0 0 .7-1.585V8.453a1.72 1.72 0 0 0-.7-1.585 1.9 1.9 0 0 0-1.577-.7zm-8.237 10.213a1.223 1.223 0 0 1-.526-1.761 1.359 1.359 0 0 1 1.753-.528l5.608 2.994a1.448 1.448 0 0 1 .7 1.057v2.994c0 2.289-1.4 4.05-3.68 5.107A19.257 19.257 0 0 1 11.918 28a17.505 17.505 0 0 1-8.412-1.761C1.4 25.006 0 23.245 0 21.132v-2.994a1.189 1.189 0 0 1 .7-1.057l5.258-2.818a1.3 1.3 0 0 1 1.227 2.289l-4.556 2.467v2.289c0 1.233.876 2.113 2.278 2.818a16.832 16.832 0 0 0 7.186 1.409 16.832 16.832 0 0 0 7.186-1.409c1.4-.7 2.278-1.761 2.278-2.818v-2.113l-5.082-2.818zM11.918 2.465a3.452 3.452 0 0 0-2.454 1.057 3.485 3.485 0 0 0-1.052 2.465v2.466a3.485 3.485 0 0 0 1.052 2.465 3.452 3.452 0 0 0 2.454 1.057 3.452 3.452 0 0 0 2.454-1.057 3.485 3.485 0 0 0 1.052-2.465V5.987a3.485 3.485 0 0 0-1.052-2.465 3.543 3.543 0 0 0-2.454-1.057z" class="cls-2" data-name="Path 89" transform="translate(19 100)"/>
    </g>
</svg>
