<svg xmlns="http://www.w3.org/2000/svg" viewBox="0 0 24 24">
    <defs>
        <style>
            .cls-1{fill:none}.cls-2{fill:#648895}
        </style>
    </defs>
    <g id="video" transform="translate(-94 -1086)">
        <path id="bg" d="M0 0h24v24H0z" class="cls-1" transform="translate(94 1086)"/>
        <path id="video-2" d="M-2142.667 562a1.354 1.354 0 0 1-1.333-1.326v-9.184a1.378 1.378 0 0 1 1.333-1.428h12.718a1.264 1.264 0 0 1 1.334 1.428v9.184a1.354 1.354 0 0 1-1.334 1.326zm.1-1.428h12.513v-8.979h-12.513zm17.436-1.021l-2.256-1.53a.789.789 0 0 1-.205-1.021.8.8 0 0 1 1.026-.2l1.128.816v-3.469l-1.128.816a.8.8 0 0 1-1.026-.2.788.788 0 0 1 .205-1.021l2.256-1.531a.883.883 0 0 1 .718 0c.205.2.308.409.41.409v6.326a.838.838 0 0 1-.41.612.377.377 0 0 1-.308.1.617.617 0 0 1-.408-.107zm-15.281-.612a.7.7 0 0 1-.718-.715.7.7 0 0 1 .718-.714h2.974a.7.7 0 0 1 .718.714.7.7 0 0 1-.718.715zm0-9.8a3.625 3.625 0 0 1-3.59-3.572 3.624 3.624 0 0 1 3.59-3.571 3.624 3.624 0 0 1 3.589 3.571 3.784 3.784 0 0 1-.718 2.041h2.564a2.774 2.774 0 0 1-.717-2.041A3.624 3.624 0 0 1-2132.1 542a3.625 3.625 0 0 1 3.59 3.571 3.625 3.625 0 0 1-3.59 3.572zm6.256-3.572a2.052 2.052 0 0 0 2.051 2.041 2.051 2.051 0 0 0 2.051-2.041 2.051 2.051 0 0 0-2.051-2.04 2.052 2.052 0 0 0-2.049 2.044zm-8.308 0a2.052 2.052 0 0 0 2.052 2.041 2.052 2.052 0 0 0 2.051-2.041 2.052 2.052 0 0 0-2.051-2.04 2.052 2.052 0 0 0-2.05 2.044z" class="cls-2" data-name="video" transform="translate(2241 546)"/>
    </g>
</svg>
