<svg version="1.1" id="Слой_1" xmlns="http://www.w3.org/2000/svg" xmlns:xlink="http://www.w3.org/1999/xlink" x="0px" y="0px"
	 viewBox="0 0 24 24" style="enable-background:new 0 0 24 24;" xml:space="preserve">
<style type="text/css">
	.st0{fill:none;}
	.st1{fill:#FFFFFF;}
</style>
<title>view</title>
<g id="Layer_2">
	<g id="Layer_1-2">
		<rect class="st0" width="24" height="24"/>
		<path class="st1" d="M19.5,9.4c-0.3-0.3-0.8-0.2-1.1,0.1c-0.3,0.3-0.2,0.8,0.1,1.1C19,11,19.5,11.5,20,12c-1.1,1.2-4.3,4.3-8,4.3
			c-0.9,0-1.8-0.2-2.7-0.5l0.8-0.8c1.6,1,3.8,0.6,4.8-1c0.4-0.6,0.6-1.2,0.6-1.9c0-0.7-0.2-1.3-0.6-1.9l6.6-6.6
			c0.3-0.3,0.3-0.8,0-1.1c-0.3-0.3-0.7-0.3-1,0l-4.6,4.6c-1.2-0.6-2.5-0.9-3.8-0.9c-5.3,0-9.4,5.1-9.6,5.3c-0.2,0.3-0.2,0.7,0,0.9
			c1.2,1.5,2.7,2.7,4.3,3.7l-4.3,4.3c-0.3,0.3-0.3,0.8,0,1.1c0.3,0.3,0.8,0.3,1.1,0l4.6-4.6c1.2,0.5,2.5,0.8,3.8,0.9
			c5.3,0,9.4-5.1,9.6-5.3c0.2-0.3,0.2-0.7,0-0.9C20.9,10.8,20.2,10.1,19.5,9.4z M10,12c0-1.1,0.9-2,2-2c0.3,0,0.5,0.1,0.8,0.2
			l-2.6,2.6C10.1,12.5,10,12.3,10,12z M14,12c0,1.1-0.9,2-2,2c-0.3,0-0.5-0.1-0.8-0.2l2.6-2.6C13.9,11.5,14,11.7,14,12z M4,12
			c1.1-1.2,4.3-4.3,8-4.3c0.9,0,1.8,0.2,2.7,0.5l-0.8,0.8c-0.6-0.4-1.2-0.6-1.9-0.6c-1.9,0-3.5,1.6-3.5,3.5c0,0.7,0.2,1.3,0.6,1.9
			l-1.2,1.2C6.4,14.2,5.1,13.2,4,12z"/>
	</g>
</g>
</svg>
