<svg xmlns="http://www.w3.org/2000/svg" viewBox="0 0 34 34">
    <defs>
        <style>
            .cls-1{fill:none}.cls-2{fill:#2b2a29}
        </style>
    </defs>
    <g id="weble" transform="translate(-21 -1081)">
        <path id="bg" d="M0 0h34v34H0z" class="cls-1" transform="translate(21 1081)"/>
        <g id="logo_icon" transform="translate(21.054 388.224)">
            <path id="Path_163" d="M1.637 700.338a5.015 5.015 0 0 1 3.48-.42 5.534 5.534 0 0 1 3.01 1.97c1.94 2.41 5.7 11.979 7.249 15.378.43.96-1.04 1.67-1.61 1.95a5.162 5.162 0 0 1-3.49.42 5.51 5.51 0 0 1-3-1.97c-1.95-2.41-5.7-11.979-7.249-15.378-.44-.96 1.04-1.67 1.61-1.95zm9.139.9a5.264 5.264 0 0 1 7.859.65 7.379 7.379 0 0 1 .96 1.58l2.6 5.709c.89-1.95 2.31-5.729 3.57-7.289a5.511 5.511 0 0 1 3-1.97 5.043 5.043 0 0 1 3.49.42c.57.28 2.11 1.02 1.58 2l-6.259 13.748a5.766 5.766 0 0 1-10.759 0q-3.135-6.9-6.279-13.8a.875.875 0 0 1 .238-1.048zm7.024 13.048l.49 1.08a4.175 4.175 0 0 0 7.809 0l6-13.178a4.359 4.359 0 0 0-.55-.32 3.563 3.563 0 0 0-2.42-.3 3.935 3.935 0 0 0-2.12 1.41c-1.24 1.53-3.14 6.479-4.069 8.519a4.224 4.224 0 0 1-5.14 2.789zm-5.509-12.1l4.189 9.2c.9 1.99 3.91 1.62 4.819-.2-.91-1.99-2.71-6.709-3.93-8.209a3.608 3.608 0 0 0-5.069-.789zm-9.969-.32a5.084 5.084 0 0 0-.54.32c1.38 3.02 5.079 12.328 6.739 14.388a3.933 3.933 0 0 0 2.12 1.41 3.621 3.621 0 0 0 2.42-.3 5.086 5.086 0 0 0 .54-.32c-1.37-3.02-5.079-12.339-6.729-14.388a3.971 3.971 0 0 0-2.12-1.41 3.6 3.6 0 0 0-2.425.302z" class="cls-2" data-name="Path 163"/>
        </g>
    </g>
</svg>
