<?xml version="1.0" encoding="utf-8"?>
<!-- Generator: Adobe Illustrator 23.0.2, SVG Export Plug-In . SVG Version: 6.00 Build 0)  -->
<svg version="1.1" xmlns="http://www.w3.org/2000/svg" xmlns:xlink="http://www.w3.org/1999/xlink" x="0px" y="0px"
	 viewBox="0 0 50 50" style="enable-background:new 0 0 50 50;" xml:space="preserve">
<style type="text/css">
	.st0{fill:#2C8FC6;}
	.st1{fill:#648895;}
	.st2{fill:#FFFFFF;}
	.st3{fill:none;}
</style>
<g id="Слой_2">
</g>
<g id="Слой_1">
	<g>
		<g id="weble_1_" transform="translate(-21 -1081)">
			<path id="bg_1_" class="st3" d="M28.7,1089h34v34h-34V1089z"/>
			<g id="logo_icon_1_" transform="translate(21.054 388.224)">
				<path id="Path_163_1_" class="st1" d="M9.3,708.3c1.1-0.6,2.3-0.7,3.5-0.4c1.2,0.2,2.3,1,3,1.9c1.9,2.4,5.7,12,7.3,15.4
					c0.5,1-1.1,1.7-1.6,1.9c-1.1,0.5-2.3,0.7-3.5,0.4c-1.2-0.2-2.3-1-3-1.9c-1.9-2.4-5.7-12-7.3-15.4C7.4,709.3,8.8,708.6,9.3,708.3
					z M18.5,709.2c2.1-2.1,5.5-1.9,7.4,0.1c0.1,0.1,0.2,0.4,0.4,0.5c0.4,0.5,0.7,1,1,1.6l2.6,5.7c0.9-1.9,2.3-5.7,3.5-7.3
					c0.7-1,1.8-1.7,3-1.9c1.2-0.2,2.4-0.1,3.5,0.4c0.6,0.2,2.1,1,1.6,1.9l-6.3,13.7c-1.1,2.9-4.5,4.5-7.4,3.3
					c-1.6-0.6-2.7-1.8-3.3-3.3c-2.1-4.6-4.1-9.2-6.3-13.8C18,709.9,18.2,709.4,18.5,709.2L18.5,709.2z M25.5,722.3l0.5,1.1
					c0.9,2.2,3.3,3.3,5.3,2.4c1.1-0.4,1.9-1.3,2.4-2.4l5.9-13.2c-0.1-0.1-0.4-0.2-0.6-0.4c-0.7-0.4-1.6-0.5-2.4-0.2
					c-0.9,0.2-1.6,0.7-2.1,1.5c-1.2,1.6-3.2,6.4-4.1,8.5C29.9,721.6,27.6,722.9,25.5,722.3z M20,710.2l4.1,9.2
					c0.9,1.9,3.9,1.6,4.9-0.2c-0.9-1.9-2.7-6.7-3.9-8.3C23.9,709.3,21.7,708.9,20,710.2L20,710.2L20,710.2z M10,709.8
					c-0.2,0.1-0.4,0.2-0.5,0.4c1.3,3,5.1,12.4,6.7,14.3c0.5,0.7,1.3,1.2,2.1,1.5c0.8,0.2,1.7,0.1,2.4-0.2c0.2-0.1,0.4-0.2,0.5-0.4
					c-1.3-3-5.1-12.4-6.7-14.3c-0.5-0.7-1.3-1.2-2.1-1.5C11.6,709.3,10.8,709.4,10,709.8L10,709.8z"/>
			</g>
		</g>
	</g>
</g>
</svg>
