<?xml version="1.0" encoding="utf-8"?>
<!-- Generator: Adobe Illustrator 23.0.2, SVG Export Plug-In . SVG Version: 6.00 Build 0)  -->
<svg version="1.1" xmlns="http://www.w3.org/2000/svg" xmlns:xlink="http://www.w3.org/1999/xlink" x="0px" y="0px"
	 viewBox="0 0 50 50" style="enable-background:new 0 0 50 50;" xml:space="preserve">
<style type="text/css">
	.st0{fill:#2C8FC6;}
	.st1{fill:#648895;}
	.st2{fill:#FFFFFF;}
	.st3{fill:none;}
</style>
<g id="Слой_2">
	<g>
		<circle id="Ellipse_1_3_" class="st0" cx="24.7" cy="25" r="23.7"/>
	</g>
</g>
<g id="Слой_1">
	<g>
		<g id="weble" transform="translate(-21 -1081)">
			<path id="bg_6_" class="st3" d="M28.9,1090.4h34v34h-34V1090.4z"/>
			<g id="logo_icon" transform="translate(21.054 388.224)">
				<path id="Path_163" class="st2" d="M9.5,709.7c1.1-0.6,2.3-0.7,3.5-0.4c1.2,0.2,2.3,1,3,1.9c1.9,2.4,5.7,12,7.3,15.4
					c0.5,1-1.1,1.7-1.6,1.9c-1.1,0.5-2.3,0.7-3.5,0.4c-1.2-0.2-2.3-1-3-1.9c-1.9-2.4-5.7-12-7.3-15.4C7.5,710.7,9,710,9.5,709.7z
					 M18.7,710.6c2.1-2.1,5.5-1.9,7.4,0.1c0.1,0.1,0.2,0.4,0.4,0.5c0.4,0.5,0.7,1,1,1.6l2.6,5.7c0.9-1.9,2.3-5.7,3.5-7.3
					c0.7-1,1.8-1.7,3-1.9c1.2-0.2,2.4-0.1,3.5,0.4c0.6,0.2,2.1,1,1.6,1.9l-6.3,13.7c-1.1,2.9-4.5,4.5-7.4,3.3
					c-1.6-0.6-2.7-1.8-3.3-3.3c-2.1-4.6-4.1-9.2-6.3-13.8C18.2,711.3,18.3,710.8,18.7,710.6L18.7,710.6z M25.6,723.7l0.5,1.1
					c0.9,2.2,3.3,3.3,5.3,2.4c1.1-0.4,1.9-1.3,2.4-2.4l6-13.2c-0.1-0.1-0.4-0.2-0.6-0.4c-0.7-0.4-1.6-0.5-2.4-0.2
					c-0.9,0.2-1.6,0.7-2.1,1.5c-1.2,1.6-3.2,6.4-4.1,8.5C30.1,723,27.8,724.3,25.6,723.7z M20.2,711.5l4.1,9.2
					c0.9,1.9,3.9,1.6,4.9-0.2c-0.9-1.9-2.7-6.7-3.9-8.3C24,710.7,21.9,710.3,20.2,711.5L20.2,711.5L20.2,711.5z M10.2,711.2
					c-0.2,0.1-0.4,0.2-0.5,0.4c1.3,3,5.1,12.4,6.7,14.3c0.5,0.7,1.3,1.2,2.1,1.5c0.9,0.2,1.7,0.1,2.4-0.2c0.2-0.1,0.4-0.2,0.5-0.4
					c-1.3-3-5.1-12.4-6.7-14.3c-0.5-0.7-1.3-1.2-2.1-1.5C11.8,710.7,10.9,710.8,10.2,711.2L10.2,711.2z"/>
			</g>
		</g>
	</g>
</g>
</svg>
