<svg xmlns="http://www.w3.org/2000/svg" viewBox="0 0 40 40">
    <defs>
        <style>
            .cls-1{fill:#278ec4}.cls-2{fill:none}.cls-3{fill:#fafafa}
        </style>
    </defs>
    <g id="write_message" transform="translate(-295 -76)">
        <circle id="Ellipse_1" cx="20" cy="20" r="20" class="cls-1" data-name="Ellipse 1" transform="translate(295 76)"/>
        <g id="write_message-2" data-name="write_message">
            <path id="Rectangle_232" d="M0 0h24v24H0z" class="cls-2" data-name="Rectangle 232" transform="translate(303 84)"/>
            <path id="messages" d="M19.113.394a.754.754 0 0 0-.493.2c-.1 0-.1 0-.2.1L9.951 7.845l-5.911-5.1a.775.775 0 0 0-1.084.1.653.653 0 0 0 .1.98l6.4 5.49a.66.66 0 0 0 .985 0l7.98-6.667v11.276a.747.747 0 0 1-.2.49.754.754 0 0 1-.493.2H2.167a.754.754 0 0 1-.493-.2.747.747 0 0 1-.2-.49V2.159a.747.747 0 0 1 .2-.49.754.754 0 0 1 .493-.2h12.71a.672.672 0 0 0 .69-.686.672.672 0 0 0-.69-.683H2.167A1.7 1.7 0 0 0 .69.688 2.081 2.081 0 0 0 0 2.159v11.667a2.308 2.308 0 0 0 .69 1.569 2.33 2.33 0 0 0 1.576.686h15.468a2.33 2.33 0 0 0 1.576-.686 2.308 2.308 0 0 0 .69-1.569V1.08a.946.946 0 0 0-.887-.686z" class="cls-3" transform="translate(305 87.92)"/>
        </g>
    </g>
</svg>
